<?xml version="1.0" encoding="UTF-8"?>
<svg width="28px" height="8px" viewBox="0 0 28 8" version="1.1" xmlns="http://www.w3.org/2000/svg" xmlns:xlink="http://www.w3.org/1999/xlink">
    <!-- Generator: Sketch 53.1 (72631) - https://sketchapp.com -->
    <title>Button/Max</title>
    <desc>Created with Sketch.</desc>
    <g id="Button/Max" stroke="none" stroke-width="1" fill="none" fill-rule="evenodd">
        <path d="M4.62488889,3.02311111 L4.62488889,5.68711111 L3.37511111,5.68711111 L3.37511111,4.35911111 L3.37511111,3.02311111 L4.62488889,3.02311111 Z M0,0 L8,0 L8,8 L5.336,8 L5.336,2.664 L2.664,2.664 L2.664,8 L0,8 L0,4 L0,0 Z M12.664,3.73422222 L15.336,3.73422222 L15.336,2.49244444 L14,2.49244444 L12.664,2.49244444 L12.664,3.73422222 Z M10,0 L18,0 L18,8 L15.336,8 L15.336,5.15644444 L12.664,5.15644444 L12.664,8 L11.336,8 L10,8 L10,0 Z M25.2186667,5.33848602 L28.0036409,5.33848602 L28,8 L25.2191551,8 L25.2191551,5.33848602 L22.6088889,5.33848602 L22.6088889,8 L20,8 L20,5.33848602 L22.6088889,5.33848602 L22.6088889,2.66878836 L20,2.66878836 L20,0 L22.6088889,0 L22.6088889,2.66060468 L23.9137778,2.66060468 C24.6746667,2.66606047 25.1093333,2.66878836 25.2186667,2.66878836 L25.2186667,5.33848602 Z M25.2081137,2.66827845 L25.2081137,-7.59392549e-14 L28,-7.59392549e-14 L28,2.66827845 L25.2081137,2.66827845 Z" id="MAX-button-text" fill="#00D0DE"></path>
    </g>
</svg>