<?xml version="1.0" encoding="UTF-8"?>
<svg width="1728px" height="405px" viewBox="0 0 1728 405" version="1.1" xmlns="http://www.w3.org/2000/svg" xmlns:xlink="http://www.w3.org/1999/xlink">
    <!-- Generator: Sketch 53.1 (72631) - https://sketchapp.com -->
    <title>CEMENT_FILL_LINEAR_WHITE_RGB</title>
    <desc>Created with Sketch.</desc>
    <g id="Symbols" stroke="none" stroke-width="1" fill="none" fill-rule="evenodd">
        <g id="CEMENT_Logo" transform="translate(-1.000000, -93.000000)">
            <g id="CEMENT_FILL_LINEAR_WHITE_RGB" transform="translate(1.000000, 93.000000)">
                <polyline id="Fill-3" fill="#7B7484" points="202.5 135 135 67.4993458 202.5 0 270 67.4993458 202.5 135"></polyline>
                <polygon id="Fill-4" fill="#50485D" points="202 135.500654 269.991863 67.4951179 337.503494 134.999664 269.500654 203"></polygon>
                <polyline id="Fill-5" fill="#A5A2AB" points="202.5 270 202.5 270 135 202.499346 202.5 135 270 202.499346 202.5 270"></polyline>
                <polyline id="Fill-6" fill="#FFFFFE" points="269.601829 202.799739 202.201045 270.200261 134.800261 202.799739 202.201045 135.400523 134.800261 68 0 202.799739 202.201045 405 337 270.200261 269.601829 202.799739"></polyline>
                <polyline id="Fill-7" fill="#7B7484" points="337.5 270 270 202.499346 337.5 135 405 202.499346 337.5 270"></polyline>
                <polyline id="Fill-8" fill="#FFFFFE" points="751 270 885 269.998696 885 225.332464 795.666232 225.332464 795.666232 180.666232 885 180.666232 885 136 751 136 751 270"></polyline>
                <polygon id="Fill-9" fill="#FFFFFE" points="803 214 848 214 848 192 803 192"></polygon>
                <polyline id="Fill-10" fill="#FFFFFE" points="540 270 674 270 674 225.333768 584.667536 225.333768 584.667536 180.666232 674 180.666232 674 136 540 136 540 270"></polyline>
                <polygon id="Fill-11" fill="#FFFFFE" points="1017 233 1039 233 1039 188 1017 188"></polygon>
                <polyline id="Fill-12" fill="#FFFFFE" points="961.001304 270 1005.66884 270 1005.66884 180.666232 1050.33377 180.666232 1050.33377 270 1095 270 1095 136 961 136 961.001304 270"></polyline>
                <polyline id="Fill-13" fill="#FFFFFE" points="1172 270 1306 269.998696 1306 225.332464 1216.66667 225.332464 1216.66667 180.666232 1306 180.666232 1306 136 1172 136 1172 270"></polyline>
                <polygon id="Fill-14" fill="#FFFFFE" points="1225 214 1270 214 1270 192 1225 192"></polygon>
                <polyline id="Fill-15" fill="#FFFFFE" points="1594 136 1594 180.676667 1638.51017 180.676667 1638.37976 270 1683.04642 270 1683.32029 180.676667 1728 180.676667 1728 136 1594 136"></polyline>
                <polyline id="Fill-16" fill="#FFFFFE" points="1383 270 1427.66667 270 1427.66667 180.666232 1472.33333 180.666232 1472.33333 270 1517 270 1517 136 1383 136 1383 270"></polyline>
                <polyline id="Fill-17" fill="#FFFFFE" points="1708 5.61258752 1701.96902 5.61258752 1701.96902 21 1700.01742 21 1700.01742 5.61258752 1694 5.61258752 1694 4 1708 4 1708 5.61258752"></polyline>
                <polyline id="Fill-18" fill="#FFFFFE" points="1719.42933 18.4902507 1724.9675 4 1728 4 1728 21 1726.20106 21 1726.20106 5.58699089 1720.1746 21 1718.58125 21 1712.79894 5.66378077 1712.79894 21 1711 21 1711 4 1714.1353 4 1719.42933 18.4902507"></polyline>
            </g>
        </g>
    </g>
</svg>