<?xml version="1.0" encoding="UTF-8"?>
<svg width="22px" height="22px" viewBox="0 0 22 22" version="1.1" xmlns="http://www.w3.org/2000/svg" xmlns:xlink="http://www.w3.org/1999/xlink">
    <!-- Generator: Sketch 53.1 (72631) - https://sketchapp.com -->
    <title>Deposit Btn Copy 3</title>
    <desc>Created with Sketch.</desc>
    <g id="Symbols" stroke="none" stroke-width="1" fill="none" fill-rule="evenodd">
        <g id="Wallet/Select" transform="translate(-195.000000, -223.000000)">
            <g id="WALLET">
                <g id="Button/Deposit" transform="translate(195.000000, 223.000000)">
                    <g id="Deposit-plum">
                        <path d="M11.0004076,22 C4.92511764,22 0,17.075515 0,11 C0.000815146912,4.92530013 4.92511764,0 11.0004076,0 C17.0748824,0 22,4.92530013 22,11 C22,17.075515 17.0748824,22 11.0004076,22 Z" id="Fill-5" fill="#726681"></path>
                        <path d="M9.30030572,15.6979347 C8.89989809,15.29542 8.89989809,14.6414215 9.30030572,14.2389068 L12.5224341,11.000525 L9.30030572,7.76073836 C8.89989809,7.35822366 8.89989809,6.70563003 9.30030572,6.30241287 C9.70071335,5.89919571 10.3512884,5.89919571 10.751696,6.30241287 L14.6991702,10.2706598 C15.1002766,10.6731745 15.1002766,11.3271731 14.6991702,11.7296878 L10.751696,15.6979347 C10.5518416,15.8995433 10.2890959,16.0006988 10.0263503,15.9999964 C9.7636046,15.9999964 9.50085893,15.8995433 9.30030572,15.6979347 Z" id="Fill-7" fill="#FFFFFF"></path>
                    </g>
                </g>
            </g>
        </g>
    </g>
</svg>