<svg xmlns="http://www.w3.org/2000/svg" width="650" height="200" viewBox="0 0 650 200">
    <g fill="none" fill-rule="evenodd">
        <path stroke="#00D0DE" stroke-dasharray="7,9" stroke-linecap="round" stroke-width="2" d="M385.196 144.296l66.688.36"/>
        <path fill="#00D0DE" d="M459.463 144.656l-12.549-4.595s4.972 4.595 0 9.19l12.55-4.595M297.194 66.145l-27.07-27.07-26.818 26.818-53.46 53.46 26.562 26.562 26.73 26.73 26.73 26.73 53.303-53.112.003.003.906-.906.002-.004 26.16-26.162-27.068-27.068-25.98-25.98zm-1.09 53.05l-.151.152-26.326 26.326-25.98-25.98 26.476-26.478 25.98 25.98zm-51.233-53.05l25.252-25.253 25.253 25.253L270.123 91.4l-25.252-25.254zm103.555 53.05l-25.252 25.253-25.254-25.254 25.254-25.252 25.252 25.252zm-38.8-13.521l-12.667 12.666-25.98-25.98 25.306-25.306 25.98 25.98-12.64 12.64z"/>
        <path stroke="#958CA0" stroke-dasharray="7,9" stroke-linecap="round" stroke-width="2" d="M385.193 95.01h110.021"/>
        <path fill="#958CA0" d="M501.464 95.112l-12.5-4.594s4.952 4.594 0 9.189l12.5-4.595"/>
        <path stroke="#C4BFCA" stroke-width="1.218" d="M558.833 69.661a2.954 2.954 0 0 0-.533-.397c-.999-.602-1.993-.602-2.988.395l-.003.002-23.222 23.31a2.96 2.96 0 0 0-.396.534c-.6 1.004-.6 2.006.397 3.007l23.221 23.308c.09.09.276.242.533.397 1 .602 1.995.602 2.991-.397l23.221-23.308c.09-.09.242-.277.396-.535.601-1.005.601-2.007-.396-3.008L558.833 69.66z"/>
        <g fill="#F2F2F2">
            <path d="M555.69 107.144c-.407-.105-.81-.224-1.221-.31-2.042-.432-3.778-1.478-5.233-2.993-.661-.688-1.155-1.55-1.72-2.335-.037-.051-.044-.127 0-.246l.795.802c1.201 1.22 2.635 2.011 4.233 2.483 2.177.642 4.342.538 6.433-.334 3.062-1.278 5.214-3.478 5.806-6.976.376-2.225-.079-4.344-1.355-6.215-.285-.418-.634-.787-.951-1.182-.076-.092-.147-.186-.22-.279l.071-.09c.224.134.458.254.673.404 2.17 1.53 3.555 3.628 3.918 6.343.376 2.829-.408 5.33-2.315 7.411-1.59 1.738-3.527 2.814-5.775 3.295-.314.066-.625.148-.937.222h-2.203z"/>
            <path d="M566.24 90.626c-.088-.083-.183-.16-.26-.25-1.41-1.693-3.181-2.734-5.256-3.27-1.804-.467-3.593-.367-5.345.165-1.418.43-2.682 1.21-3.801 2.243-1.37 1.267-2.257 2.823-2.603 4.69-.321 1.75-.156 3.461.552 5.102.417.968.981 1.82 1.72 2.548.087.086.154.195.229.293l-.082.13c-.277-.16-.594-.275-.825-.492-.754-.703-1.586-1.358-2.19-2.188-1.786-2.45-2.235-5.2-1.308-8.143.746-2.364 2.273-4.061 4.29-5.315 1.805-1.12 3.76-1.649 5.855-1.57 2.093.077 4.007.75 5.743 1.973 1.306.922 2.348 2.11 3.175 3.508.09.152.153.322.229.483l-.124.093"/>
            <path d="M555.603 97.436v-3.32c0-.673-.01-.681-.672-.681-.804-.001-1.608.003-2.413-.002-.483-.004-.554-.148-.306-.583.65-1.148 1.676-1.677 2.89-1.712 2.044-.061 4.092-.022 6.138-.018.412 0 .492.127.297.509-.549 1.085-1.415 1.69-2.59 1.8-.083.008-.168.004-.253.005-.606.006-.62.017-.62.644-.001 1.505-.015 3.01.004 4.514.014 1.044-.488 1.753-1.269 2.3-.242.17-.515.293-.774.437-.328.182-.433.025-.432-.308.002-.781 0-1.563 0-2.345v-1.24z"/>
        </g>
        <path stroke="#C4BFCA" stroke-width="1.218" d="M591.717 35.595a2.954 2.954 0 0 0-.533-.397c-1-.602-1.994-.602-2.989.395l-.002.002-23.222 23.31a2.96 2.96 0 0 0-.396.534c-.6 1.004-.6 2.006.397 3.007l23.221 23.308c.09.09.275.242.533.397 1 .602 1.995.602 2.99-.397l23.222-23.308c.09-.09.242-.277.396-.535.6-1.005.6-2.007-.396-3.008l-23.221-23.308z"/>
        <path fill="#FFF" d="M590.229 54.568a5.957 5.957 0 0 0-3.628 1.182c-1.866 1.38-2.771 3.695-2.265 5.788a5.527 5.527 0 0 0 6.021 4.193c2.425-.276 4.282-2.033 4.646-4.41.204-1.334-.031-2.614-.569-3.839-.835-1.906-2.343-2.826-4.205-2.914m-5.83 13.146a.326.326 0 0 1-.04-.019 9.93 9.93 0 0 1-1.304-2.186l-.096-.294c-.817-2.414-.804-4.818.363-7.098 1.657-3.244 4.463-4.766 8.042-4.97.539-.031 1.086.058 1.63.091l.394.122c.057.058.108.126.174.174.265.193.542.369.8.57a6.127 6.127 0 0 1 2.15 3.113 7.996 7.996 0 0 1 .321 3.075c-.122 1.36-.527 2.625-1.317 3.74-.415.584-.927 1.099-1.395 1.645l-.623.499-.62.4c-1.1.615-2.26 1.065-3.51 1.239-1.661.229-3.317.12-4.97-.1"/>
        <path fill="#AFA8B8" d="M584.358 67.696c-1.28-.19-2.5-.537-3.523-1.374-.936-.767-1.296-1.785-1.256-2.963.034-1.007.315-1.96.724-2.87.584-1.303.906-2.673 1.18-4.063.14-.715.303-1.43.512-2.127.445-1.483 1.499-2.266 3.013-2.448.492-.06.993-.05 1.49-.072l.003.021c-.496.548-1.02 1.074-1.484 1.649-1.155 1.431-2.064 2.998-2.635 4.761a12.069 12.069 0 0 0-.558 3.082c-.05.938.08 1.875.431 2.751.207.513.53.978.8 1.466a9.973 9.973 0 0 0 1.303 2.187z"/>
        <path fill="#F2F2F2" d="M589.367 67.814c1.251-.172 2.412-.622 3.511-1.237a.379.379 0 0 0 .227-.01c.173-.066.258-.268.393-.392l.623-.498c.166-.1.356-.176.496-.306.563-.521 1.127-1.043 1.66-1.593a15.362 15.362 0 0 0 2.303-3.102c.433-.762.766-1.58 1.144-2.375l.045.008c.412.742.755 1.506.87 2.358.192 1.45-.285 2.62-1.479 3.476a5.53 5.53 0 0 1-1.024.587c-1.573.674-2.955 1.63-4.224 2.763a56.989 56.989 0 0 1-2.003 1.73c-1.28 1.038-2.708 1.204-4.245.662-1.276-.448-2.4-1.114-3.266-2.17 1.653.22 3.309.329 4.969.1zM586.501 51.8c.988.097 1.988.133 2.963.308.89.161 1.754.472 2.632.716l.324.089.573.325c-.544-.033-1.09-.122-1.629-.09-3.58.203-6.384 1.725-8.043 4.968-1.166 2.281-1.18 4.685-.362 7.098.033.099.063.197.096.295-.27-.488-.594-.953-.8-1.466a6.424 6.424 0 0 1-.432-2.751c.057-1.047.232-2.074.559-3.082.57-1.763 1.48-3.33 2.635-4.761.463-.575.987-1.1 1.484-1.648"/>
        <path fill="#F2F2F2" d="M599.6 58.024l.124.278c-.378.793-.711 1.611-1.144 2.374a15.336 15.336 0 0 1-2.303 3.101 41.329 41.329 0 0 1-1.66 1.594c-.14.13-.33.205-.496.306.468-.546.98-1.061 1.395-1.646.79-1.115 1.196-2.378 1.317-3.74a7.992 7.992 0 0 0-.32-3.074 6.128 6.128 0 0 0-2.15-3.113c-.259-.201-.537-.377-.802-.57-.065-.048-.116-.116-.173-.173.173.034.359.042.519.111.6.254 1.194.528 1.79.793l2.19 1.687.917.97c.266.366.53.735.795 1.102M592.878 66.577l.62-.401c-.184.168-.274.48-.62.4z"/>
        <path fill="#AFA8B8" d="M599.94 54.422c-.252-.678-.763-1.106-1.436-1.277-.79-.201-1.603-.316-2.407-.457-1.49-.26-2.876-.742-4.148-1.599-1.379-.93-2.849-.996-4.304-.121-.401.24-.766.539-1.147.81l.003.023c.989.096 1.989.132 2.963.306.891.161 1.755.473 2.63.717l.326.089.573.325.394.121c.175.036.36.045.52.112.6.255 1.195.528 1.79.794l2.19 1.687.12-.022-.12.022.918.97.795 1.103.124.276.044.008.111-.505a7.84 7.84 0 0 1 .06-.222c.083-.39.201-.779.242-1.174.037-.375-.008-.758-.016-1.138l-.224-.848z"/>
        <g>
            <path stroke="#C4BFCA" stroke-width="1.218" d="M591.717 102.628a2.954 2.954 0 0 0-.533-.397c-1-.602-1.994-.602-2.989.395l-.002.002-23.222 23.31a2.96 2.96 0 0 0-.396.534c-.6 1.004-.6 2.006.397 3.007l23.221 23.308c.09.09.275.242.533.397 1 .602 1.995.602 2.99-.397l23.222-23.308c.09-.09.242-.277.396-.535.6-1.005.6-2.007-.396-3.008l-23.221-23.308z"/>
            <path fill="#F2F2F2" fill-rule="nonzero" d="M589.78 136.638a9.5 9.5 0 1 1 0-19 9.5 9.5 0 0 1 0 19zm-1.897-16.273c-.931-.224-3.05 1.213-4.092 2.773-1.663 2.492-1.611 5.782.131 8.2 1.077 1.498 3.113 2.819 3.972 2.579.226-.8.139-.976-.525-1.3-2.258-1.102-3.523-2.9-3.543-5.426-.02-2.554 1.239-4.373 3.504-5.504.709-.354.806-.547.553-1.322zm3.832 13.58c1.05.158 3.23-1.35 4.195-3 1.562-2.67 1.5-5.345-.214-7.924-.946-1.423-2.281-2.346-3.942-2.804-.316.898-.211 1.119.486 1.465 2.269 1.128 3.531 2.946 3.514 5.499-.016 2.53-1.277 4.327-3.534 5.432-.676.33-.793.6-.505 1.333zm-2.566-10.43c-.272.102-.51.173-.734.275-.638.292-1.061.766-1.169 1.475-.153 1.007.273 1.746 1.254 2.06.621.2 1.278.287 1.912.45.428.11.734.366.74.853.005.479-.238.805-.669.992-.875.377-1.769.018-2.141-.848-.04-.095-.109-.177-.154-.25h-1.113c.055 1.41.949 1.939 2.07 2.225l.093 1.132h1.118l.074-1.108c.342-.148.667-.252.953-.422.797-.473 1.132-1.192 1.031-2.111-.095-.882-.658-1.34-1.456-1.561-.357-.1-.729-.144-1.092-.227-.31-.071-.633-.122-.919-.252-.54-.245-.623-.983-.184-1.38.556-.503 1.731-.33 2.109.314.31.525.704.61 1.303.244-.097-1.061-.827-1.548-1.735-1.821l-.11-1.22-1.1.056-.081 1.125z"/>
        </g>
        <g>
            <path stroke="#C4BFCA" stroke-width="1.218" d="M624.6 69.661a2.954 2.954 0 0 0-.532-.397c-1-.602-1.994-.602-2.989.395l-.002.002-23.222 23.31a2.96 2.96 0 0 0-.396.534c-.6 1.004-.6 2.006.397 3.007l23.22 23.308c.09.09.276.242.533.397 1 .602 1.995.602 2.991-.397l23.222-23.308c.089-.09.241-.277.396-.535.6-1.005.6-2.007-.397-3.008l-23.22-23.308z"/>
            <g fill="#F2F2F2">
                <path d="M628.293 89.311h-9.646c.004.796-.025 1.564.02 2.366h3.49v1.502c-.108.01-.195.016-.28.027-.865.105-1.733.188-2.594.323-.632.098-1.259.254-1.807.61-.444.288-.454.652.006.91.353.198.742.349 1.132.46 1.064.304 2.166.396 3.266.48.093.007.187.026.316.043v4.917h2.58v-4.925c.651-.065 1.257-.093 1.851-.193.743-.126 1.48-.293 2.21-.483.267-.07.525-.226.752-.391.289-.209.281-.491.008-.718a1.858 1.858 0 0 0-.454-.275 6.42 6.42 0 0 0-.805-.282c-1.07-.292-2.167-.393-3.268-.476-.093-.007-.185-.024-.28-.037V91.67h3.503v-2.359zm-5.41-5.146h1.175c.386.055.772.102 1.157.166 4.321.709 7.801 4.197 8.502 8.523.061.384.11.77.166 1.157v1.177c-.055.377-.1.755-.163 1.13a10.385 10.385 0 0 1-8.531 8.553c-.375.063-.754.11-1.13.164h-1.175c-.086-.02-.17-.043-.258-.057-.5-.076-1.008-.12-1.5-.234a10.378 10.378 0 0 1-7.904-8.425c-.063-.376-.108-.754-.162-1.131v-1.177c.043-.325.08-.651.13-.974.701-4.491 4.099-7.938 8.59-8.714.366-.063.735-.106 1.104-.158z"/>
                <path d="M622.182 95.114c.867.09 1.696.09 2.584.008v-1.713c.42.027.783.042 1.143.076.825.074 1.646.174 2.437.43.226.073.45.175.649.304.238.155.238.353.003.511-.183.122-.387.24-.596.286-.756.16-1.515.305-2.277.426-.438.068-.885.079-1.343.117-.441.016-1.308.017-1.732.01-1.327-.021-2.647-.107-3.947-.392-.234-.051-.463-.128-.691-.201-.108-.037-.228-.073-.313-.144-.122-.104-.289-.234-.3-.364-.009-.105.164-.258.29-.336.161-.104.35-.183.538-.224a30.137 30.137 0 0 1 1.856-.362c.447-.07.903-.083 1.354-.118.097-.007.192-.001.345-.001v1.687z"/>
            </g>
        </g>
        <g>
            <path stroke="#C4BFCA" stroke-width="1.218" d="M624.6 2.628a2.954 2.954 0 0 0-.532-.397c-1-.602-1.994-.602-2.989.395l-.002.002-23.222 23.31a2.96 2.96 0 0 0-.396.534c-.6 1.004-.6 2.006.397 3.007l23.22 23.308c.09.09.276.242.533.397 1 .602 1.995.602 2.991-.397l23.222-23.308c.089-.09.241-.277.396-.535.6-1.005.6-2.007-.397-3.008l-23.22-23.308z"/>
            <path fill="#F2F2F2" d="M626.476 24.894c-.023.234-.053.404-.053.57-.005 1.166-.005 2.33-.001 3.496 0 .634.13.732.727.552 2.03-.615 3.332-1.965 3.925-4.009.051-.177.007-.383.007-.609h-4.605zm-12.534 4.721c.217.041.364.091.51.093 1.25.007 2.5-.005 3.75.008.42.004.537-.2.534-.582-.01-1.182 0-2.363-.004-3.544-.002-.596-.248-.802-.792-.557-.72.325-1.466.658-2.083 1.138-1.073.836-1.679 1.997-1.915 3.444zm10.95.014v-4.693c-.15-.032-.255-.072-.359-.074-1.328-.004-2.657.002-3.985-.005-.35-.002-.48.2-.483.504-.01 1.307-.008 2.614-.01 3.92 0 .296.158.429.442.428 1.36 0 2.72.001 4.08-.004.09 0 .177-.042.315-.076zm-10.931 1.554c.045.324.044.581.121.81.958 2.83 3.316 4.481 6.474 3.889 2.157-.405 3.6-1.8 4.196-3.981.21-.771.191-.783-.596-.783-3.155 0-6.313-.001-9.47.002-.223 0-.446.038-.725.063zm11.714-7.73c1.627 0 3.254.004 4.882-.002.53-.001.668-.195.526-.713-.287-1.06-.808-1.981-1.623-2.715-1.709-1.536-3.668-1.916-5.799-1.101-1.769.676-2.855 2.031-3.384 3.851-.138.471.008.677.516.678 1.627.006 3.254.002 4.882.002zm6.966.674c.075 3.47-2.66 6.414-5.748 6.883-.4.06-.56.254-.631.625-.53 2.798-2.181 4.664-4.838 5.49-2.715.844-5.15.118-7.113-1.934-1.244-1.302-1.812-2.904-1.805-4.761.006-2.206.844-3.961 2.46-5.382.875-.771 1.897-1.299 3.05-1.46.598-.084.79-.4.878-.908.186-1.062.635-2.001 1.29-2.85 2.592-3.344 7.426-3.64 10.418-.654 1.377 1.372 2.016 3.028 2.039 4.951z"/>
        </g>
        <g>
            <path stroke="#C4BFCA" stroke-width="1.218" d="M624.558 135.116a2.975 2.975 0 0 0-.536-.407c-1.002-.614-1.998-.614-2.997.404l-.002.003-23.32 23.796c-.09.092-.243.284-.399.548-.607 1.032-.607 2.066.4 3.093l23.319 23.796c.09.091.277.248.535.406 1.003.614 2 .614 3-.406l23.318-23.796c.09-.092.244-.284.4-.548.607-1.033.607-2.067-.4-3.094l-23.318-23.795z"/>
            <path fill="#F2F2F2" d="M614.241 155.26v.22l-.001 11.803c0 .086-.003.173-.02.257a.435.435 0 0 1-.447.349.453.453 0 0 1-.413-.427c-.003-.045-.002-.091-.002-.137v-12.883c0-.076-.004-.154.014-.227.08-.34.434-.46.714-.241.98.765 1.957 1.533 2.935 2.3 1.585 1.243 3.169 2.488 4.756 3.729a.612.612 0 0 1 .254.519c-.002 2.269-.002 4.538-.001 6.807 0 .168-.023.328-.153.444-.13.115-.282.155-.445.086a.443.443 0 0 1-.28-.382c-.007-.055-.004-.111-.004-.167 0-2.157 0-4.315.002-6.472 0-.123-.033-.204-.13-.28-2.215-1.733-4.426-3.47-6.638-5.205-.033-.027-.071-.048-.141-.094zm17.083-.002c-.096.074-.16.12-.222.17-2.164 1.698-4.327 3.398-6.495 5.092a.422.422 0 0 0-.181.377c.006 2.142.004 4.284.004 6.426 0 .35-.169.571-.44.575-.278.005-.455-.219-.455-.574 0-2.259.002-4.517-.003-6.776a.66.66 0 0 1 .276-.569c2.506-1.96 5.01-3.925 7.513-5.89.063-.049.125-.1.19-.146.3-.206.673-.023.706.344.004.045.002.091.002.137v12.913c0 .287-.1.46-.307.534-.274.098-.563-.102-.585-.409-.008-.116-.003-.233-.003-.35V155.258z"/>
        </g>
        <g>
            <path stroke="#00D0DE" stroke-width="1.218" d="M510.853 119.137a2.953 2.953 0 0 0-.533-.396c-1-.6-1.995-.6-2.99.394l-.002.002-23.223 23.223a2.947 2.947 0 0 0-.395.532c-.6 1-.6 1.995.397 2.991l23.22 23.222c.09.09.276.242.533.396 1 .6 1.997.6 2.993-.396l23.221-23.222c.09-.089.242-.275.396-.532.6-1 .6-1.997-.396-2.993l-23.221-23.221z"/>
            <path fill="#F2F2F2" d="M496.736 142.51h1.662v3.293h-1.662v-3.293zm-4.154-4.118h9.971v9.882h-3.32v-6.591h-3.33v6.59h-3.321v-9.88zm21.604 3.291h-3.32v3.3h3.32v3.29h-9.971v-3.29h3.32v-3.3h-3.32v-3.29h9.971v3.29zm8.31 3.297h3.318l.005 3.294h-3.325l.01-3.294h-.009zm.109.007h-3.433v3.287h-3.324v-3.287h3.324v-3.297h-3.324v-3.298h3.324v3.288h1.662l1.661.01v-3.298h3.324v3.298h-3.324v3.297h.11z"/>
        </g>
        <g>
            <path stroke="#958CA0" stroke-dasharray="7,9" stroke-linecap="round" stroke-width="2" d="M72.345 119.187h78.94"/>
            <path fill="#958CA0" d="M161.152 118.641l-15.35-5.454s6.081 5.454 0 10.909l15.35-5.455"/>
        </g>
        <g>
            <path stroke="#C4BFCA" stroke-width="1.218" d="M28.271 94.63a2.968 2.968 0 0 0-.535-.398c-1.004-.604-2.005-.605-3.005.396l-.002.002-23.32 23.365c-.09.09-.242.277-.397.536-.604 1.007-.604 2.011.398 3.014L24.73 144.91c.09.09.276.243.535.398 1.005.604 2.006.604 3.007-.398l23.319-23.364c.09-.09.243-.277.398-.536.604-1.008.604-2.013-.398-3.016L28.27 94.63z"/>
            <path fill="#F2F2F2" d="M38.31 120.806c-.031.934-.198 1.846-.463 2.74a11.46 11.46 0 0 1-.89 2.156 11.383 11.383 0 0 1-1.278 1.906 11.46 11.46 0 0 1-2.975 2.554 11.53 11.53 0 0 1-2.39 1.08 10.73 10.73 0 0 1-2.003.449c-.266.031-.533.05-.798.074l-.329.035h-.775l-.32-.035c-.325-.032-.654-.056-.98-.1-.509-.069-1.009-.182-1.503-.326a11.608 11.608 0 0 1-4.031-2.1 14.567 14.567 0 0 1-.673-.59 10.952 10.952 0 0 1-1.381-1.557 11.452 11.452 0 0 1-1.286-2.237c-.26-.598-.47-1.212-.627-1.844-.12-.478-.207-.963-.26-1.453-.031-.264-.042-.527-.064-.79l-.011-.44a3.012 3.012 0 0 1-.001-.175c.004-.147.009-.293.012-.44a11.528 11.528 0 0 1 1.03-4.273 11.528 11.528 0 0 1 4.79-5.24c.971-.553 2-.956 3.088-1.212a9.93 9.93 0 0 1 1.409-.234c.28-.026.563-.038.845-.057l.703-.001c.624.015 1.243.085 1.857.206a11.545 11.545 0 0 1 8.78 7.832c.197.62.344 1.253.431 1.897.053.379.095.757.093 1.14 0 .03.01.06.016.09v.684l-.017.26zm-11.507 10.127a10.673 10.673 0 0 0 10.67-10.686c.004-5.935-4.775-10.69-10.655-10.698-5.952-.008-10.684 4.823-10.689 10.684-.003 5.887 4.757 10.7 10.674 10.7z"/>
            <path fill="#F2F2F2" d="M29.387 113.336c2.215 2.121 4.43 4.246 6.644 6.368.03.027.058.058.094.093-.031.033-.057.064-.086.09l-3.394 3.255a12176.28 12176.28 0 0 1-5.591 5.358c-.03.03-.07.05-.105.076l.003-.112v-5.791l-.003-5.616c.001-.005 1.298 1.49 1.895 2.067.071.07.145.1.247.1 1.295-.004 2.59-.003 3.884-.003.027 0 .052.002.078 0 .017-.003.033-.01.057-.019-.064-.07-.12-.134-.18-.194-.208-.215-.417-.428-.623-.642-.088-.088-.173-.177-.259-.266-.26-.273-.52-.547-.782-.819-.24-.251-.484-.501-.727-.753l-.97-1.006-.626-.64-.271-.279c-.272-.284-.542-.569-.815-.852l-.618-.634c-.09-.094-.197-.194-.285-.289-.007-.048-.001-.092-.001-.141l-.001-1.66c.03.023 1.655 1.56 2.435 2.31z"/>
            <path fill="#C4BFCA" d="M26.946 122.368c-.052-.016-9.186-2.776-9.16-2.803.022-.024 9.137-8.513 9.165-8.538a88.83 88.83 0 0 0 .006 1.787c-.009.001-.527.554-.756.801l-1.104 1.188-.748.802-.929.999-.728.781c-.31.333-.618.666-.93 1-.244.262-.49.523-.733.787-.021.024-.053.046-.049.1H24.926c.049 0 .097-.006.147-.007a.168.168 0 0 0 .125-.062c.12-.131.242-.26.364-.39.431-.463 1.361-1.734 1.386-1.756l-.002 5.31z"/>
            <path fill="#FFF" d="M17.774 119.56c.044.007 9.123 2.79 9.175 2.806v6.092l-.002.118c-.035-.032-.068-.06-.1-.094"/>
        </g>
    </g>
</svg>
