<?xml version="1.0" encoding="UTF-8"?>
<svg width="35px" height="35px" viewBox="0 0 35 35" version="1.1" xmlns="http://www.w3.org/2000/svg" xmlns:xlink="http://www.w3.org/1999/xlink">
    <!-- Generator: Sketch 53.1 (72631) - https://sketchapp.com -->
    <title>Button/Slider Next</title>
    <desc>Created with Sketch.</desc>
    <g id="Button/Slider-Next" stroke="none" stroke-width="1" fill="none" fill-rule="evenodd">
        <path d="M35,17.5 C35,27.165336 27.1658993,35 17.5010199,35 C7.83512064,35 0.00101993239,27.165336 0,17.5 C-0.00101993239,7.83466402 7.83308078,0 17.4989801,0 C27.1628395,0 34.9989801,7.83466402 35,17.5" id="Fill-1" fill="#FFFFFF"></path>
        <path d="M15.86875,26.10175 C15.38975,26.10175 14.91275,25.91975 14.54775,25.55475 C13.81875,24.82675 13.81875,23.64275 14.54775,22.91375 L20.40975,17.05075 L14.54675,11.18875 C13.81775,10.45875 13.81775,9.27675 14.54675,8.54675 C15.27575,7.81775 16.45875,7.81775 17.18775,8.54675 L24.37175,15.73075 C25.09975,16.45975 25.09975,17.64275 24.37175,18.37175 L17.18875,25.55475 C16.82475,25.91975 16.34675,26.10175 15.86875,26.10175" id="Fill-3" fill="#14002D"></path>
    </g>
</svg>