<?xml version="1.0" encoding="UTF-8"?>
<svg width="26px" height="26px" viewBox="0 0 26 26" version="1.1" xmlns="http://www.w3.org/2000/svg" xmlns:xlink="http://www.w3.org/1999/xlink">
    <!-- Generator: Sketch 53.1 (72631) - https://sketchapp.com -->
    <title>Combined Shape</title>
    <desc>Created with Sketch.</desc>
    <g id="Symbols" stroke="none" stroke-width="1" fill="none" fill-rule="evenodd">
        <g id="ICON/!" fill="#FF6272">
            <path d="M26,13 C26,20.1796411 20.1796411,26 13,26 C5.82035893,26 1.17239551e-13,20.1796411 1.17239551e-13,13 C1.17239551e-13,5.82035893 5.82035893,0 13,0 C20.1796411,0 26,5.82035893 26,13 Z M13.415281,15.8079847 L16.0695911,5.32231244 C16.1384348,5.05152692 15.9334334,4.78992056 15.6549985,4.78992056 L10.3456134,4.78992056 C10.0664137,4.78992056 9.86141218,5.05152692 9.93025596,5.32231244 L12.585331,15.8079847 C12.6939512,16.2386408 13.3058959,16.2386408 13.415281,15.8079847 Z M15.052692,19.8417711 C15.052692,18.7089085 14.13401,17.7894616 12.9996175,17.7894616 C11.86599,17.7894616 10.947308,18.7089085 10.947308,19.8417711 C10.947308,20.9753986 11.86599,21.8948455 12.9996175,21.8948455 C14.13401,21.8948455 15.052692,20.9753986 15.052692,19.8417711 Z" id="Combined-Shape"></path>
        </g>
    </g>
</svg>