<?xml version="1.0" encoding="UTF-8"?>
<svg width="532px" height="147px" viewBox="0 0 532 147" version="1.1" xmlns="http://www.w3.org/2000/svg" xmlns:xlink="http://www.w3.org/1999/xlink">
    <!-- Generator: Sketch 53.1 (72631) - https://sketchapp.com -->
    <title>Illustration</title>
    <desc>Created with Sketch.</desc>
    <g id="Symbols" stroke="none" stroke-width="1" fill="none" fill-rule="evenodd">
        <g id="Illustration/Welcome">
            <g id="Illustration">
                <g id="Graphic/Arrow1" transform="translate(350.841294, 92.455698)">
                    <path d="M0.57226506,3.81166364 L61.0361446,4.13509091" id="Stroke-32" stroke="#00D0DE" stroke-width="2" stroke-linecap="round" stroke-dasharray="7,9"></path>
                    <path d="M67.908241,4.13509091 L56.5301205,8.52651283e-14 C56.5301205,8.52651283e-14 61.0377831,4.13509091 56.5301205,8.27018182 L67.908241,4.13509091" id="Fill-34" fill="#00D0DE" fill-rule="evenodd"></path>
                </g>
                <g id="Graphic/Mixr-Icon" transform="translate(182.798151, 0.000000)" fill="#FFFFFF">
                    <path d="M98.2112749,25.2764447 L73.4947441,0.559913966 L49.0098,25.0456793 L0.198408939,73.8570704 L24.450124,98.1096067 L48.8562302,122.515713 L73.2615151,146.920998 L121.930012,98.4274223 L121.932476,98.429886 L122.759454,97.6029084 L122.761096,97.5996235 L146.647364,73.7125341 L121.932476,48.9976458 L98.2112749,25.2764447 Z M97.2159453,73.7125341 L97.0779788,73.852143 L73.0414257,97.8886961 L49.3202246,74.167495 L73.4947441,49.9921542 L97.2159453,73.7125341 Z M50.4379173,25.2764447 L73.4947441,2.21879665 L96.5515709,25.2764447 L73.4947441,48.3340927 L50.4379173,25.2764447 Z M144.988482,73.7125341 L121.932476,96.7701821 L98.8748279,73.7125341 L121.932476,50.6557073 L144.988482,73.7125341 Z M109.562303,61.367819 L97.9969341,72.9323665 L74.275733,49.2119866 L97.3818335,26.105886 L121.103035,49.8262659 L109.562303,61.367819 Z" id="Fill-6"></path>
                </g>
                <g id="Graphic/Arrow-3" transform="translate(350.841294, 47.370952)">
                    <path d="M0.574919231,4.04296364 L101.192369,4.04296364" id="Stroke-28" stroke="#00D0DE" stroke-width="2" stroke-linecap="round" stroke-dasharray="7,9"></path>
                    <path d="M106.907815,4.13509091 L95.4769231,8.52651283e-14 C95.4769231,8.52651283e-14 100.005492,4.13509091 95.4769231,8.27018182 L106.907815,4.13509091" id="Fill-30" fill="#00D0DE" fill-rule="evenodd"></path>
                </g>
                <g id="Graphic/TRUE-Icon" transform="translate(483.636364, 26.231125)">
                    <g id="TRUE" transform="translate(0.000000, 0.646721)">
                        <path d="M23.0254373,35.4988525 C22.6536407,35.4070492 22.2850983,35.3013115 21.910861,35.225082 C20.0478102,34.8455738 18.4638102,33.9259016 17.1352678,32.5939344 C16.5332339,31.9898361 16.082522,31.2308197 15.5667254,30.5398361 C15.5333695,30.4947541 15.5260475,30.4283607 15.567539,30.3242623 C15.8091661,30.5595082 16.0507932,30.7939344 16.2916068,31.03 C17.3882847,32.1004918 18.6956746,32.7980328 20.1552,33.2127869 C22.1419119,33.777541 24.1164203,33.6865574 26.0250305,32.9193443 C28.8196068,31.7955738 30.783539,29.8603279 31.3229288,26.7840984 C31.6670644,24.827541 31.2521492,22.9644262 30.0871322,21.3193443 C29.8267932,20.9513115 29.5095051,20.625082 29.2182508,20.28 C29.1507254,20.1988525 29.0856407,20.1160656 29.0189288,20.0340984 C29.0400814,20.0078689 29.0612339,19.9816393 29.0832,19.9554098 C29.2882169,20.0734426 29.5013695,20.1783607 29.6966237,20.3103279 C31.6768271,21.6562295 32.9419119,23.5004918 33.2722169,25.8881967 C33.6163525,28.3767213 32.9004203,30.575082 31.1602169,32.4062295 C29.7080136,33.9340984 27.9409627,34.8808197 25.8899797,35.3029508 C25.6036068,35.3619672 25.3196746,35.4332787 25.0349288,35.4988525 L23.0254373,35.4988525 Z" id="Fill-40" fill="#F2F2F2"></path>
                        <path d="M32.6526915,20.9721311 C32.5729627,20.8991803 32.4859119,20.8327869 32.4151322,20.7508197 C31.1288949,19.2631148 29.5131661,18.3491803 27.6200136,17.8770492 C25.9733695,17.4663934 24.3405559,17.5540984 22.7419119,18.0213115 C21.4491661,18.4 20.2947254,19.0860656 19.2737085,19.995082 C18.0224542,21.1090164 17.2137763,22.4770492 16.8989288,24.1188525 C16.6044203,25.6565574 16.7557424,27.1622951 17.4017085,28.6057377 C17.7824542,29.4565574 18.2974373,30.2057377 18.971878,30.8459016 C19.0507932,30.9221311 19.1109966,31.0172131 19.1801492,31.1040984 C19.1557424,31.1418033 19.130522,31.1803279 19.1061153,31.2180328 C18.8522847,31.0770492 18.5626576,30.9762295 18.3519458,30.7868852 C17.6644881,30.1672131 16.9054373,29.5918033 16.3530305,28.8614754 C14.7234712,26.707377 14.3142508,24.2893443 15.1611661,21.7008197 C15.8404881,19.6213115 17.2341153,18.1286885 19.0760136,17.0262295 C20.7226576,16.0401639 22.5059797,15.5762295 24.4178441,15.6442623 C26.3280814,15.7122951 28.0747932,16.304918 29.6587932,17.3811475 C30.8522847,18.1918033 31.802522,19.2360656 32.5566915,20.4655738 C32.638861,20.5991803 32.6966237,20.7483607 32.7657763,20.8901639 L32.6526915,20.9721311 Z" id="Fill-42" fill="#F2F2F2"></path>
                        <path d="M22.9463593,26.9611475 C22.9463593,25.9881967 22.9471729,25.0144262 22.9463593,24.0414754 C22.9455458,23.4496721 22.9374102,23.4422951 22.3337492,23.4422951 C21.5991051,23.4414754 20.8652746,23.4447541 20.1314441,23.4398361 C19.6904949,23.437377 19.6254102,23.3103279 19.8515797,22.927541 C20.445478,21.9185246 21.3818847,21.4537705 22.4883254,21.422623 C24.3538169,21.3693443 26.2225627,21.4037705 28.0904949,21.4070492 C28.4671729,21.4078689 28.5387661,21.5168852 28.3614102,21.8545902 C27.8602576,22.8095082 27.0702915,23.3406557 25.9988339,23.437377 C25.9223593,23.4439344 25.8442576,23.4398361 25.7669695,23.4414754 C25.2137492,23.4472131 25.2015458,23.4570492 25.2007322,24.0070492 C25.1999186,25.3308197 25.1869017,26.6545902 25.2048,27.977541 C25.2178169,28.8955738 24.7589695,29.5193443 24.0479186,30.0004918 C23.8266305,30.1496721 23.5768678,30.2578689 23.340122,30.3840984 C23.0407322,30.5447541 22.9455458,30.4062295 22.9463593,30.1144262 C22.9488,29.4267213 22.9463593,28.7390164 22.9463593,28.0513115 L22.9463593,26.9611475 Z" id="Fill-44" fill="#F2F2F2"></path>
                        <path d="M25.5979192,1.7809805 C25.5201282,1.70260504 25.3550351,1.56650889 25.126458,1.42832081 C24.2427183,0.894049196 23.3715816,0.893645003 22.4919575,1.77878997 C22.490914,1.7798403 22.490914,1.7798403 22.4897908,1.78097214 L1.45837257,22.971233 C1.38057615,23.0495818 1.24549341,23.2158636 1.1082356,23.4462762 C0.575853617,24.3399778 0.575988495,25.2243797 1.45928233,26.1139459 L22.4897825,47.3032818 C22.5675181,47.3816015 22.7325303,47.5176208 22.9610251,47.6557365 C23.8452977,48.1902427 24.7172122,48.1902427 25.5979109,47.3032902 L46.6285155,26.113849 C46.706389,26.0354226 46.8415861,25.8690021 46.9789575,25.638405 C47.5116324,24.744236 47.5116324,23.8593459 46.6284277,22.9695051 L25.5979192,1.7809805 Z" id="Stroke-36" stroke="#00D0DE" stroke-width="1.218"></path>
                    </g>
                </g>
                <g id="Graphic/MIX-icon" transform="translate(439.371341, 72.135593)">
                    <g id="MIX">
                        <path d="M25.4558957,1.31361108 C25.3781769,1.23589226 25.2131425,1.1008591 24.9845517,0.963693395 C24.0999893,0.432912478 23.2267238,0.43251032 22.3467156,1.31143788 C22.3456728,1.31247972 22.3456728,1.31247972 22.3445416,1.31361108 L1.31240601,22.3457467 C1.23485136,22.4233013 1.10005544,22.5880621 0.963121056,22.8163173 C0.432421968,23.7009365 0.432690415,24.5744918 1.31404145,25.455482 L22.3445416,46.4867957 C22.4222051,46.5644592 22.5871585,46.6994161 22.8156671,46.8365099 C23.700763,47.367524 24.5748066,47.367524 25.4558874,46.486804 L46.4864924,25.4553855 C46.5641915,25.3777181 46.6992063,25.2127615 46.8363558,24.9842538 C47.3675603,24.0992031 47.3675603,23.2252757 46.4864042,22.3441196 L25.4558957,1.31361108 Z" id="Stroke-38" stroke="#00D0DE" stroke-width="1.218"></path>
                        <path d="M12.7118644,22.440678 L14.2169492,22.440678 L14.2169492,25.4237288 L12.7118644,25.4237288 L12.7118644,22.440678 Z M8.94915254,18.7118644 L17.979661,18.7118644 L17.979661,27.6610169 L14.9724311,27.6610169 L14.9724311,21.6920021 L11.9563824,21.6920021 L11.9563824,27.6610169 L8.94915254,27.6610169 L8.94915254,18.7118644 Z M28.5152542,21.6920021 L25.5080244,21.6920021 L25.5080244,24.6808792 L28.5152542,24.6808792 L28.5152542,27.6610169 L19.4847458,27.6610169 L19.4847458,24.6808792 L22.4919756,24.6808792 L22.4919756,21.6920021 L19.4847458,21.6920021 L19.4847458,18.7118644 L28.5152542,18.7118644 L28.5152542,21.6920021 Z M36.040678,24.6779661 L39.0462717,24.6779661 L39.0508475,27.6610169 L36.0391288,27.6610169 L36.0488529,24.6779661 L36.040678,24.6779661 Z M36.1398153,24.6839262 L33.0305085,24.6839262 L33.0305085,27.6610169 L30.020339,27.6610169 L30.020339,24.6839262 L33.0305085,24.6839262 L33.0305085,21.6978953 L30.020339,21.6978953 L30.020339,18.7118644 L33.0305085,18.7118644 L33.0305085,21.6889551 L34.5355932,21.6889551 C35.4128127,21.6949153 35.9145026,21.6978953 36.040678,21.6978953 L36.040678,18.7118644 L39.0508475,18.7118644 L39.0508475,21.6978953 L36.040678,21.6978953 L36.040678,24.6839262 L36.1398153,24.6839262 Z" fill="#F2F2F2"></path>
                    </g>
                </g>
                <g id="Graphic/Arrow-2" transform="translate(66.397535, 69.503464)">
                    <path d="M0.447552212,4.09369091 L85.8100301,4.09369091" id="Stroke-7" stroke="#00D0DE" stroke-width="2" stroke-linecap="round" stroke-dasharray="7,9"></path>
                    <path d="M92.907823,4.13509091 L81.4778761,8.52651283e-14 C81.4778761,8.52651283e-14 86.0060708,4.13509091 81.4778761,8.27018182 L92.907823,4.13509091" id="Fill-8" fill="#00D0DE" fill-rule="evenodd"></path>
                </g>
                <g id="Graphic/DAI-Icon" transform="translate(0.000000, 49.183359)">
                    <g id="DEPOSIT-TOKEN" transform="translate(0.000000, 0.644350)">
                        <path d="M25.5632831,1.31987084 C25.4850656,1.24135501 25.3191543,1.10508651 25.0894153,0.966705996 C24.2006535,0.431370999 23.3235432,0.430965529 22.4391135,1.3176786 C22.4380652,1.31872986 22.4380652,1.31872986 22.4369371,1.31986249 L1.31743497,22.5207425 C1.23926244,22.5991811 1.10357657,22.765592 0.96573493,22.9961351 C0.431301662,23.8899861 0.43143697,24.7739423 1.31834832,25.6638721 L22.4369287,46.863827 C22.5150907,46.9422871 22.6809208,47.0784787 22.9105772,47.2167868 C23.799875,47.7523569 24.6777669,47.7523569 25.5632748,46.8638353 L46.6819599,25.6637754 C46.7602097,25.5852592 46.8960105,25.4187095 47.0339663,25.1879818 C47.5686936,24.2936631 47.5686936,23.4092184 46.6818719,22.519014 L25.5632831,1.31987084 Z" id="Stroke-10" stroke="#00D0DE" stroke-width="1.218"></path>
                        <g id="Group" transform="translate(13.830508, 13.883333)">
                            <path d="M20.8647695,11.1488575 C20.8372899,11.9968256 20.6856435,12.8243607 20.4464697,13.6355495 C20.244953,14.3159672 19.9742286,14.9677788 19.6404029,15.592006 C19.3126839,16.2080599 18.9259347,16.7842695 18.4821909,17.3216565 C18.2043421,17.6577788 17.9081737,17.9755114 17.59165,18.2748544 C17.0400235,18.795895 16.4385268,19.2495069 15.7881775,19.6387549 C15.1032243,20.0484358 14.3816318,20.3743417 13.6233998,20.6185156 C13.0310629,20.8105855 12.4265128,20.9505513 11.8097497,21.0261533 C11.5685403,21.0547594 11.3273309,21.0711058 11.0871393,21.0935821 C10.9873987,21.1037985 10.8886759,21.1150367 10.7889353,21.1252532 L10.0866802,21.1252532 C9.99101071,21.1150367 9.89432341,21.1037985 9.79763611,21.0935821 C9.50248542,21.0639543 9.2052992,21.0424996 8.9101485,21.0026554 C8.44910276,20.9403348 7.9961991,20.8371483 7.54838425,20.7063774 C6.81661408,20.4928529 6.11537674,20.2037264 5.44467222,19.8369546 C4.89813456,19.5386333 4.38111196,19.1953595 3.89767547,18.8010033 C3.6880167,18.630388 3.48650002,18.4495563 3.28803662,18.2666812 C2.82495535,17.8375889 2.41072662,17.3615008 2.03720832,16.85272 C1.57209154,16.2203197 1.18534235,15.5429668 0.872889716,14.8227048 C0.636769159,14.2802095 0.447465609,13.7234112 0.304979066,13.1502665 C0.197096398,12.716066 0.117711038,12.2757356 0.0688585091,11.8313185 C0.0413789615,11.5922528 0.0312013513,11.3531871 0.0118638919,11.1141214 C0.00881060882,10.9802855 0.00473956474,10.8474712 0.00168628167,10.714657 C-0.00034924037,10.6615312 -0.00034924037,10.6094272 0.000668520652,10.5563015 C0.00473956474,10.4234872 0.00881060882,10.2906729 0.0118638919,10.1578586 C0.0403612005,9.53669646 0.121782082,8.92268583 0.25917982,8.31684838 C0.417950539,7.61395435 0.646946769,6.93557988 0.945150748,6.27968167 C1.29933158,5.50425061 1.73900435,4.78092361 2.26925784,4.11276562 C2.51148496,3.80627113 2.7689785,3.51305806 3.04479174,3.23721302 C3.71549625,2.56599009 4.45947956,1.99386704 5.28284822,1.52493047 C6.16219374,1.02330115 7.09446284,0.657551057 8.07965551,0.425636892 C8.49999081,0.325515358 8.92439716,0.251956681 9.35491007,0.213134045 C9.60935032,0.189636134 9.86480834,0.178398003 10.1202664,0.161029982 C10.3329784,0.160008333 10.5446727,0.160008333 10.7573848,0.160008333 C11.3222421,0.17431141 11.8830284,0.237653604 12.438726,0.346969973 C12.8926474,0.435853375 13.3394445,0.55334293 13.7770817,0.702503582 C14.8131624,1.0559939 15.7718933,1.55660156 16.6522566,2.21045648 C17.1479062,2.57824987 17.6079342,2.98690919 18.0313228,3.43643444 C18.6022867,4.04227188 19.0928475,4.70736493 19.504023,5.43171358 C19.8704169,6.07535201 20.1665854,6.74861824 20.3904928,7.45355557 C20.5696188,8.01648378 20.7019277,8.59065013 20.7813131,9.17503296 C20.8291478,9.51932844 20.866805,9.86260227 20.8657872,10.2099627 C20.8647695,10.2365255 20.8749471,10.2651317 20.8800359,10.2916946 L20.8800359,10.9118351 L20.8647695,11.1488575 Z M10.4439144,20.338584 C15.7576447,20.335519 20.104502,16.033358 20.1075553,10.6421199 C20.1106085,5.25599007 15.7830887,0.941569285 10.4571453,0.934417747 C5.06708288,0.927266209 0.781291224,5.31115908 0.77722018,10.6288385 C0.774166897,15.9710375 5.08540258,20.3375623 10.4439144,20.338584 Z" id="Fill-31" fill="#F2F2F2"></path>
                            <path d="M12.7843008,4.37088355 C14.7903305,6.29546397 16.7963603,8.22314023 18.8013157,10.1487526 C18.8292518,10.1735193 18.8539645,10.2013819 18.8861985,10.2333722 C18.8582624,10.2632987 18.8346241,10.2911612 18.8088369,10.3159279 C17.7837955,11.300405 16.7598285,12.2838501 15.734787,13.2683272 C14.0478739,14.8895153 12.3588118,16.5107034 10.6708243,18.1308596 C10.6439626,18.1576902 10.6074307,18.1762652 10.5762481,18.2 C10.5773457,18.1649138 10.5784201,18.1318915 10.5784201,18.0978373 L10.5784201,12.8431652 L10.5762481,7.74692875 C10.5773226,7.74280097 11.751738,9.0992629 12.2921949,9.62245982 C12.3566629,9.68644051 12.4232799,9.71327112 12.515684,9.71327112 C13.6890019,9.71017529 14.8612454,9.71120723 16.0334888,9.71120723 C16.0582015,9.71120723 16.0807654,9.71223918 16.1044036,9.71017529 C16.1194462,9.70811139 16.1344887,9.70088777 16.155978,9.69366414 C16.0979568,9.6307154 16.0474569,9.57189444 15.9937335,9.51720127 C15.8046273,9.32216336 15.6155212,9.12918935 15.4285639,8.93518339 C15.3490534,8.85469155 15.2716917,8.77419971 15.1943301,8.69370788 C14.9579474,8.44604069 14.7226391,8.19734156 14.4862564,7.95070632 C14.2681396,7.72264612 14.0478739,7.49561787 13.8276082,7.26755767 C13.5342787,6.96313342 13.2420237,6.65870918 12.9486942,6.35428493 C12.7606625,6.16131091 12.5704818,5.96730495 12.3824501,5.77433094 L12.1363972,5.52047207 C11.8903443,5.26248542 11.6453658,5.00449877 11.3982384,4.74754406 C11.2123556,4.55457005 11.0243239,4.36365993 10.8384411,4.17171786 C10.7567816,4.08709824 10.6603004,3.99580893 10.5807899,3.91015736 C10.5743431,3.86578366 10.5794946,3.82601575 10.5794946,3.78164204 C10.5784201,3.27908405 10.5784201,2.77652605 10.5784201,2.275 C10.6052818,2.29667088 12.0773015,3.69186269 12.7843008,4.37088355 Z" id="Fill-34" fill="#F2F2F2"></path>
                            <path d="M10.5736896,12.5661858 C10.5263745,12.5516722 2.25363541,10.0477472 2.2783683,10.0228669 C2.29772446,10.0010965 10.5524687,2.29817841 10.5782769,2.27537139 C10.5771033,3.32673175 10.5786671,3.86727105 10.5829685,3.89698928 C10.5754411,3.89802596 10.1063464,4.40019936 9.89880531,4.62412281 C9.56544908,4.98281499 9.23209285,5.34254386 8.89873663,5.70227273 C8.67291467,5.94381978 8.44709271,6.18744019 8.22127075,6.43002392 C7.94060631,6.73169856 7.66101722,7.03337321 7.38035278,7.33608453 C7.16098288,7.57141148 6.94053763,7.8088118 6.72116773,8.04517544 C6.44050329,8.34685008 6.1609142,8.6495614 5.87917442,8.95227273 C5.65765383,9.18967305 5.4350579,9.42707337 5.21461265,9.66654705 C5.19525648,9.68831738 5.16622223,9.70801435 5.1705236,9.75673844 L5.27698253,9.75673844 L8.74388728,9.75673844 C8.78797633,9.75673844 8.83206538,9.75155502 8.87722977,9.75051834 C8.92346951,9.74948166 8.95895582,9.72874801 8.99014075,9.69453748 C9.09982571,9.57531898 9.20951066,9.45817384 9.32027095,9.34102871 C9.71062034,8.92013557 10.5525824,7.76676458 10.5751646,7.74706761 L10.5736896,12.5661858 Z" id="Fill-36" fill="#C4BFCA"></path>
                            <path d="M2.26634383,10.017578 C2.30634738,10.0251771 10.5286994,12.5495087 10.5762712,12.564707 L10.5762712,18.0925267 C10.5762712,18.1283511 10.57519,18.16309 10.5741088,18.2 C10.5427547,18.1706891 10.5124817,18.144635 10.48329,18.1142385" id="Fill-38" fill="#FFFFFF"></path>
                        </g>
                    </g>
                </g>
            </g>
        </g>
    </g>
</svg>