<?xml version="1.0" encoding="UTF-8"?>
<svg width="21px" height="21px" viewBox="0 0 21 21" version="1.1" xmlns="http://www.w3.org/2000/svg" xmlns:xlink="http://www.w3.org/1999/xlink">
    <!-- Generator: Sketch 53.1 (72631) - https://sketchapp.com -->
    <title>ICON/Dai Dark</title>
    <desc>Created with Sketch.</desc>
    <g id="ICON/Dai-Dark" stroke="none" stroke-width="1" fill="none" fill-rule="evenodd">
        <path d="M20.7538,11.1022 C20.7268,11.9322 20.5778,12.7422 20.3428,13.5362 C20.1448,14.2022 19.8788,14.8402 19.5508,15.4512 C19.2288,16.0542 18.8488,16.6182 18.4128,17.1442 C18.1398,17.4732 17.8488,17.7842 17.5378,18.0772 C16.9958,18.5872 16.4048,19.0312 15.7658,19.4122 C15.0928,19.8132 14.3838,20.1322 13.6388,20.3712 C13.0568,20.5592 12.4628,20.6962 11.8568,20.7702 C11.6198,20.7982 11.3828,20.8142 11.1468,20.8362 C11.0488,20.8462 10.9518,20.8572 10.8538,20.8672 L10.1638,20.8672 C10.0698,20.8572 9.9748,20.8462 9.8798,20.8362 C9.5898,20.8072 9.2978,20.7862 9.0078,20.7472 C8.5548,20.6862 8.1098,20.5852 7.6698,20.4572 C6.9508,20.2482 6.2618,19.9652 5.6028,19.6062 C5.0658,19.3142 4.5578,18.9782 4.0828,18.5922 C3.8768,18.4252 3.6788,18.2482 3.4838,18.0692 C3.0288,17.6492 2.6218,17.1832 2.2548,16.6852 C1.7978,16.0662 1.4178,15.4032 1.1108,14.6982 C0.8788,14.1672 0.6928,13.6222 0.5528,13.0612 C0.4468,12.6362 0.3688,12.2052 0.3208,11.7702 C0.2938,11.5362 0.2838,11.3022 0.2648,11.0682 C0.2618,10.9372 0.2578,10.8072 0.2548,10.6772 C0.2528,10.6252 0.2528,10.5742 0.2538,10.5222 C0.2578,10.3922 0.2618,10.2622 0.2648,10.1322 C0.2928,9.5242 0.3728,8.9232 0.5078,8.3302 C0.6638,7.6422 0.8888,6.9782 1.1818,6.3362 C1.5298,5.5772 1.9618,4.8692 2.4828,4.2152 C2.7208,3.9152 2.9738,3.6282 3.2448,3.3582 C3.9038,2.7012 4.6348,2.1412 5.4438,1.6822 C6.3078,1.1912 7.2238,0.8332 8.1918,0.6062 C8.6048,0.5082 9.0218,0.4362 9.4448,0.3982 C9.6948,0.3752 9.9458,0.3642 10.1968,0.3472 C10.4058,0.3462 10.6138,0.3462 10.8228,0.3462 C11.3778,0.3602 11.9288,0.4222 12.4748,0.5292 C12.9208,0.6162 13.3598,0.7312 13.7898,0.8772 C14.8078,1.2232 15.7498,1.7132 16.6148,2.3532 C17.1018,2.7132 17.5538,3.1132 17.9698,3.5532 C18.5308,4.1462 19.0128,4.7972 19.4168,5.5062 C19.7768,6.1362 20.0678,6.7952 20.2878,7.4852 C20.4638,8.0362 20.5938,8.5982 20.6718,9.1702 C20.7188,9.5072 20.7558,9.8432 20.7548,10.1832 C20.7538,10.2092 20.7638,10.2372 20.7688,10.2632 L20.7688,10.8702 L20.7538,11.1022 Z M10.5148,20.0972 C15.7358,20.0942 20.0068,15.8832 20.0098,10.6062 C20.0128,5.3342 15.7608,1.1112 10.5278,1.1042 C5.2318,1.0972 1.0208,5.3882 1.0168,10.5932 C1.0138,15.8222 5.2498,20.0962 10.5148,20.0972 Z" id="Fill-31" fill="#14002D"></path>
        <path d="M10.509,2.7144 C10.534,2.7354 10.562,2.7524 10.585,2.7764 C11.244,3.4324 11.904,4.0874 12.562,4.7454 C14.429,6.6104 16.296,8.4784 18.162,10.3444 C18.188,10.3684 18.211,10.3954 18.241,10.4264 C18.215,10.4554 18.193,10.4824 18.169,10.5064 C17.215,11.4604 16.262,12.4134 15.308,13.3674 C13.738,14.9384 12.166,16.5094 10.595,18.0794 C10.57,18.1054 10.536,18.1234 10.507,18.1464 C10.508,18.1124 10.509,18.0804 10.509,18.0474 L10.509,12.9554 L10.509,8.2594 C10.51,8.2554 10.511,8.2504 10.512,8.2464 C10.538,8.2714 10.566,8.2934 10.59,8.3184 C11.096,8.8234 11.601,9.3274 12.104,9.8344 C12.164,9.8964 12.226,9.9224 12.312,9.9224 C13.404,9.9194 14.495,9.9204 15.586,9.9204 C15.609,9.9204 15.63,9.9214 15.652,9.9194 C15.666,9.9174 15.68,9.9104 15.7,9.9034 C15.646,9.8424 15.599,9.7854 15.549,9.7324 C15.373,9.5434 15.197,9.3564 15.023,9.1684 C14.949,9.0904 14.877,9.0124 14.805,8.9344 C14.585,8.6944 14.366,8.4534 14.146,8.2144 C13.943,7.9934 13.738,7.7734 13.533,7.5524 C13.26,7.2574 12.988,6.9624 12.715,6.6674 C12.54,6.4804 12.363,6.2924 12.188,6.1054 L11.959,5.8594 C11.73,5.6094 11.502,5.3594 11.272,5.1104 C11.099,4.9234 10.924,4.7384 10.751,4.5524 C10.675,4.4704 10.601,4.3864 10.527,4.3034 C10.521,4.2604 10.51,4.2174 10.51,4.1744 C10.509,3.6874 10.509,3.2004 10.509,2.7144" id="Fill-34" fill="#14002D"></path>
        <path d="M10.509,8.2593 L10.509,12.9553 C10.465,12.9413 10.42,12.9283 10.376,12.9133 C9.88,12.7513 9.383,12.5903 8.886,12.4283 C8.351,12.2533 7.815,12.0773 7.28,11.9033 C6.793,11.7443 6.307,11.5863 5.821,11.4283 C5.262,11.2453 4.702,11.0633 4.144,10.8793 C3.74,10.7473 3.338,10.6143 2.935,10.4833 C2.9,10.4713 2.861,10.4693 2.823,10.4623 C2.8,10.4463 2.789,10.4253 2.812,10.4013 C2.83,10.3803 2.849,10.3613 2.868,10.3423 C5.391,7.8213 7.913,5.2993 10.436,2.7793 C10.459,2.7553 10.485,2.7363 10.509,2.7143 C10.509,3.2003 10.509,3.6873 10.51,4.1743 C10.51,4.2173 10.521,4.2603 10.527,4.3033 C10.52,4.3043 10.514,4.3053 10.508,4.3063 C10.497,4.3153 10.486,4.3223 10.477,4.3323 C10.283,4.5483 10.09,4.7643 9.897,4.9803 C9.587,5.3263 9.277,5.6733 8.967,6.0203 C8.757,6.2533 8.547,6.4883 8.337,6.7223 C8.076,7.0133 7.816,7.3043 7.555,7.5963 C7.351,7.8233 7.146,8.0523 6.942,8.2803 C6.681,8.5713 6.421,8.8633 6.159,9.1553 C5.953,9.3843 5.746,9.6133 5.541,9.8443 C5.523,9.8653 5.496,9.8843 5.5,9.9313 L5.599,9.9313 L8.823,9.9313 C8.864,9.9313 8.905,9.9263 8.947,9.9253 C8.99,9.9243 9.023,9.9043 9.052,9.8713 C9.154,9.7563 9.256,9.6433 9.359,9.5303 C9.722,9.1243 10.085,8.7203 10.449,8.3153 C10.467,8.2953 10.488,8.2783 10.509,8.2593" id="Fill-36" fill="#14002D" opacity="0.793457031"></path>
        <path d="M2.8234,10.4624 C2.8604,10.4694 2.8994,10.4714 2.9344,10.4834 C3.3384,10.6144 3.7404,10.7474 4.1434,10.8794 C4.7024,11.0634 5.2614,11.2454 5.8204,11.4284 C6.3064,11.5864 6.7934,11.7444 7.2794,11.9024 C7.8144,12.0774 8.3504,12.2534 8.8854,12.4284 C9.3834,12.5904 9.8804,12.7514 10.3764,12.9134 C10.4204,12.9284 10.4654,12.9414 10.5094,12.9554 L10.5094,18.0474 C10.5094,18.0804 10.5084,18.1124 10.5074,18.1464 C10.4784,18.1194 10.4504,18.0954 10.4234,18.0674 C7.9144,15.5594 5.4044,13.0494 2.8954,10.5404 C2.8704,10.5154 2.8474,10.4874 2.8234,10.4624" id="Fill-38" fill="#14002D" opacity="0.652622768"></path>
    </g>
</svg>