<?xml version="1.0" encoding="UTF-8"?>
<svg width="24px" height="23px" viewBox="0 0 24 23" version="1.1" xmlns="http://www.w3.org/2000/svg" xmlns:xlink="http://www.w3.org/1999/xlink">
    <!-- Generator: Sketch 53.1 (72631) - https://sketchapp.com -->
    <title>ICON/Paxos Dark</title>
    <desc>Created with Sketch.</desc>
    <g id="ICON/Paxos-Dark" stroke="none" stroke-width="1" fill="none" fill-rule="evenodd">
        <path d="M11.6213,4.895 C10.1193,4.892 8.7933,5.351 7.6633,6.19 C5.6283,7.702 4.6403,10.237 5.1923,12.529 C5.9123,15.512 8.7113,17.469 11.7613,17.122 C14.4063,16.819 16.4323,14.895 16.8293,12.292 C17.0523,10.831 16.7953,9.429 16.2093,8.087 C15.2983,5.999 13.6523,4.992 11.6213,4.895 M5.2613,19.294 C5.2463,19.288 5.2313,19.281 5.2173,19.273 C4.6373,18.538 4.1703,17.735 3.7953,16.878 C3.7603,16.771 3.7263,16.664 3.6903,16.556 C2.7993,13.913 2.8133,11.28 4.0863,8.782 C5.8943,5.23 8.9553,3.563 12.8593,3.339 C13.4473,3.305 14.0443,3.403 14.6373,3.439 C14.7803,3.484 14.9243,3.528 15.0673,3.573 C15.1303,3.636 15.1853,3.71 15.2573,3.763 C15.5463,3.974 15.8493,4.167 16.1313,4.387 C17.2703,5.277 18.0573,6.417 18.4753,7.797 C18.8083,8.894 18.9293,10.017 18.8263,11.165 C18.6933,12.655 18.2513,14.04 17.3893,15.26 C16.9363,15.9 16.3783,16.464 15.8673,17.062 C15.6413,17.245 15.4143,17.426 15.1873,17.609 C14.9633,17.755 14.7373,17.902 14.5123,18.048 C13.3123,18.721 12.0463,19.214 10.6813,19.404 C8.8703,19.655 7.0633,19.536 5.2613,19.294" id="Fill-13" fill="#14002D"></path>
        <path d="M5.2609,19.2944 C7.0639,19.5354 8.8699,19.6544 10.6809,19.4034 C12.0459,19.2144 13.3129,18.7214 14.5119,18.0484 C14.8889,18.1354 14.9869,17.7924 15.1879,17.6084 C15.4139,17.4264 15.6409,17.2444 15.8669,17.0624 C16.0489,16.9524 16.2559,16.8694 16.4089,16.7274 C17.0229,16.1564 17.6379,15.5854 18.2189,14.9824 C19.2029,13.9604 20.0359,12.8154 20.7319,11.5854 C21.2039,10.7504 21.5679,9.8544 21.9799,8.9844 C21.9959,8.9874 22.0119,8.9894 22.0289,8.9924 C22.4779,9.8054 22.8529,10.6424 22.9769,11.5754 C23.1879,13.1644 22.6669,14.4444 21.3649,15.3824 C21.0169,15.6324 20.6399,15.8564 20.2479,16.0254 C18.5309,16.7634 17.0239,17.8104 15.6389,19.0514 C14.9209,19.6944 14.1999,20.3374 13.4539,20.9454 C12.0579,22.0834 10.4999,22.2654 8.8229,21.6714 C7.4319,21.1804 6.2049,20.4514 5.2609,19.2944" id="Fill-15" fill="#14002D" opacity="0.752046131"></path>
        <path d="M3.7951,16.8784 C4.1701,17.7344 4.6371,18.5374 5.2171,19.2734 C3.8201,19.0664 2.4891,18.6854 1.3731,17.7684 C0.3521,16.9294 -0.0399,15.8134 0.0031,14.5234 C0.0401,13.4204 0.3471,12.3764 0.7931,11.3794 C1.4301,9.9534 1.7811,8.4524 2.0801,6.9304 C2.2331,6.1474 2.4111,5.3644 2.6391,4.6004 C3.1241,2.9764 4.2741,2.1194 5.9261,1.9194 C6.4631,1.8544 7.0091,1.8644 7.5511,1.8404 L7.5551,1.8644 C7.0131,2.4644 6.4411,3.0404 5.9361,3.6694 C4.6761,5.2374 3.6841,6.9534 3.0611,8.8844 C2.7051,9.9884 2.5141,11.1134 2.4521,12.2594 C2.3971,13.2874 2.5391,14.3134 2.9231,15.2734 C3.1481,15.8344 3.5001,16.3444 3.7951,16.8784" id="Fill-18" fill="#14002D" opacity="0.600655692"></path>
        <path d="M7.5549,1.8647 C8.6329,1.9697 9.7239,2.0097 10.7869,2.2017 C11.7589,2.3777 12.7009,2.7187 13.6579,2.9857 C13.7759,3.0187 13.8939,3.0507 14.0119,3.0827 C14.2209,3.2017 14.4289,3.3207 14.6369,3.4387 C14.0439,3.4027 13.4479,3.3047 12.8599,3.3397 C8.9549,3.5627 5.8949,5.2297 4.0859,8.7817 C2.8139,11.2797 2.7989,13.9127 3.6909,16.5557 C3.7269,16.6637 3.7599,16.7707 3.7949,16.8787 C3.4999,16.3437 3.1479,15.8347 2.9229,15.2727 C2.5389,14.3127 2.3969,13.2877 2.4519,12.2597 C2.5139,11.1137 2.7049,9.9887 3.0609,8.8847 C3.6839,6.9537 4.6759,5.2377 5.9359,3.6697 C6.4409,3.0407 7.0129,2.4647 7.5549,1.8647" id="Fill-21" fill="#14002D" opacity="0.752046131"></path>
        <path d="M21.8439,8.6811 C21.8899,8.7831 21.9349,8.8841 21.9799,8.9851 C21.5679,9.8541 21.2039,10.7501 20.7319,11.5851 C20.0359,12.8161 19.2029,13.9601 18.2189,14.9821 C17.6379,15.5851 17.0229,16.1571 16.4089,16.7271 C16.2559,16.8691 16.0489,16.9521 15.8669,17.0621 C16.3779,16.4641 16.9369,15.9001 17.3889,15.2601 C18.2509,14.0391 18.6939,12.6551 18.8259,11.1641 C18.9289,10.0171 18.8089,8.8941 18.4759,7.7971 C18.0569,6.4171 17.2709,5.2771 16.1309,4.3871 C15.8489,4.1671 15.5459,3.9741 15.2569,3.7631 C15.1859,3.7101 15.1299,3.6361 15.0679,3.5731 C15.2569,3.6111 15.4589,3.6201 15.6339,3.6951 C16.2889,3.9731 16.9369,4.2731 17.5869,4.5641 C18.3829,5.1801 19.1789,5.7951 19.9749,6.4111 C20.3089,6.7651 20.6429,7.1191 20.9759,7.4731 C21.2659,7.8751 21.5549,8.2791 21.8439,8.6811" id="Fill-23" fill="#14002D" opacity="0.752046131"></path>
        <path d="M15.1877,17.6089 C14.9867,17.7929 14.8887,18.1349 14.5117,18.0479 C14.7377,17.9019 14.9627,17.7549 15.1877,17.6089" id="Fill-25" fill="#14002D" opacity="0.752046131"></path>
        <path d="M22.4611,5.6645 L22.4631,5.6675 C22.3801,5.3565 22.2981,5.0465 22.2161,4.7355 C21.9401,3.9925 21.3831,3.5245 20.6491,3.3375 C19.7871,3.1165 18.9001,2.9905 18.0231,2.8365 C16.3981,2.5525 14.8851,2.0235 13.4981,1.0855 C11.9941,0.0675 10.3901,-0.0055 8.8031,0.9525 C8.3651,1.2165 7.9671,1.5425 7.5511,1.8405 L7.5551,1.8645 C8.6331,1.9705 9.7241,2.0095 10.7871,2.2005 C11.7591,2.3765 12.7011,2.7185 13.6571,2.9855 C13.7751,3.0185 13.8941,3.0505 14.0121,3.0825 L14.0131,3.0825 C14.2211,3.2015 14.4291,3.3205 14.6371,3.4385 C14.7801,3.4835 14.9241,3.5275 15.0671,3.5715 C15.2571,3.6105 15.4591,3.6205 15.6341,3.6945 C16.2891,3.9735 16.9371,4.2725 17.5871,4.5635 C18.3831,5.1805 19.1791,5.7955 19.9751,6.4115 C20.0221,6.4025 20.0681,6.3935 20.1061,6.3875 C20.0681,6.3935 20.0221,6.4025 19.9751,6.4115 C20.3091,6.7655 20.6431,7.1195 20.9771,7.4735 C21.2661,7.8755 21.5551,8.2785 21.8441,8.6815 C21.8901,8.7825 21.9351,8.8835 21.9801,8.9845 C21.9961,8.9875 22.0121,8.9895 22.0281,8.9925 C22.0681,8.8085 22.1081,8.6235 22.1491,8.4395 C22.1701,8.3575 22.1911,8.2765 22.2141,8.1965 C22.3051,7.7685 22.4341,7.3435 22.4781,6.9105 C22.5191,6.4995 22.4701,6.0805 22.4611,5.6645" id="Fill-27" fill="#14002D" opacity="0.600655692"></path>
    </g>
</svg>