<?xml version="1.0" encoding="UTF-8"?>
<svg width="21px" height="20px" viewBox="0 0 21 20" version="1.1" xmlns="http://www.w3.org/2000/svg" xmlns:xlink="http://www.w3.org/1999/xlink">
    <!-- Generator: Sketch 53.1 (72631) - https://sketchapp.com -->
    <title>Fill 1</title>
    <desc>Created with Sketch.</desc>
    <g id="Symbols" stroke="none" stroke-width="1" fill="none" fill-rule="evenodd">
        <g id="ICON/Tether-Dark" fill="#14002D">
            <path d="M15.1135,4.9019 L5.9065,4.9019 C5.9105,5.6599 5.8825,6.3909 5.9255,7.1549 L9.2575,7.1549 L9.2575,8.5859 C9.1535,8.5949 9.0705,8.6009 8.9885,8.6109 C8.1635,8.7109 7.3355,8.7899 6.5135,8.9189 C5.9105,9.0119 5.3115,9.1609 4.7885,9.4999 C4.3645,9.7739 4.3555,10.1209 4.7945,10.3659 C5.1315,10.5549 5.5025,10.6989 5.8745,10.8039 C6.8905,11.0939 7.9425,11.1819 8.9925,11.2619 C9.0815,11.2689 9.1705,11.2869 9.2935,11.3029 L9.2935,15.9859 L11.7575,15.9859 L11.7575,11.2949 C12.3785,11.2329 12.9565,11.2069 13.5235,11.1109 C14.2325,10.9909 14.9365,10.8319 15.6335,10.6509 C15.8875,10.5849 16.1345,10.4359 16.3505,10.2789 C16.6265,10.0799 16.6195,9.8109 16.3585,9.5949 C16.2285,9.4889 16.0795,9.3969 15.9255,9.3329 C15.6755,9.2279 15.4185,9.1359 15.1565,9.0649 C14.1355,8.7869 13.0885,8.6899 12.0375,8.6109 C11.9485,8.6049 11.8605,8.5889 11.7695,8.5759 L11.7695,7.1489 L15.1135,7.1489 L15.1135,4.9019 Z M9.9505,0.0009 L11.0715,0.0009 C11.4395,0.0529 11.8085,0.0979 12.1755,0.1589 C16.3005,0.8339 19.6225,4.1559 20.2915,8.2759 C20.3495,8.6419 20.3965,9.0099 20.4495,9.3779 L20.4495,10.4989 C20.3975,10.8579 20.3535,11.2179 20.2945,11.5759 C19.5995,15.7539 16.3245,19.0299 12.1505,19.7209 C11.7925,19.7809 11.4315,19.8249 11.0715,19.8769 L9.9505,19.8769 C9.8685,19.8579 9.7875,19.8359 9.7045,19.8229 C9.2265,19.7499 8.7425,19.7089 8.2725,19.5999 C4.3595,18.6999 1.3915,15.5389 0.7275,11.5759 C0.6675,11.2179 0.6245,10.8579 0.5735,10.4989 L0.5735,9.3779 C0.6145,9.0689 0.6495,8.7579 0.6975,8.4499 C1.3665,4.1729 4.6095,0.8899 8.8965,0.1509 C9.2465,0.0909 9.5985,0.0499 9.9505,0.0009 L9.9505,0.0009 Z" id="Fill-1"></path>
        </g>
    </g>
</svg>