<?xml version="1.0" encoding="UTF-8"?>
<svg width="21px" height="21px" viewBox="0 0 21 21" version="1.1" xmlns="http://www.w3.org/2000/svg" xmlns:xlink="http://www.w3.org/1999/xlink">
    <!-- Generator: Sketch 53.1 (72631) - https://sketchapp.com -->
    <title>ICON/TrueUSD Dark</title>
    <desc>Created with Sketch.</desc>
    <g id="ICON/TrueUSD-Dark" stroke="none" stroke-width="1" fill="none" fill-rule="evenodd">
        <path d="M9.4455,20.9819 C9.0575,20.8859 8.6725,20.7769 8.2805,20.6979 C6.3315,20.3039 4.6745,19.3489 3.2855,17.9659 C2.6545,17.3379 2.1835,16.5509 1.6435,15.8339 C1.6085,15.7869 1.6015,15.7179 1.6445,15.6089 C1.8975,15.8529 2.1505,16.0969 2.4025,16.3419 C3.5495,17.4549 4.9175,18.1779 6.4435,18.6089 C8.5215,19.1949 10.5875,19.0999 12.5835,18.3039 C15.5065,17.1369 17.5605,15.1279 18.1255,11.9339 C18.4845,9.9029 18.0505,7.9679 16.8325,6.2599 C16.5605,5.8779 16.2275,5.5409 15.9245,5.1809 C15.8525,5.0969 15.7845,5.0109 15.7155,4.9259 L15.7825,4.8439 C15.9965,4.9659 16.2195,5.0759 16.4245,5.2129 C18.4955,6.6099 19.8185,8.5249 20.1645,11.0039 C20.5235,13.5869 19.7755,15.8699 17.9555,17.7709 C16.4365,19.3569 14.5885,20.3399 12.4425,20.7789 C12.1425,20.8389 11.8455,20.9139 11.5485,20.9819 L9.4455,20.9819 Z" id="Fill-5" fill="#14002D"></path>
        <path d="M19.5158,5.8999 C19.4328,5.8239 19.3418,5.7539 19.2678,5.6709 C17.9218,4.1259 16.2318,3.1759 14.2518,2.6859 C12.5298,2.2599 10.8218,2.3509 9.1498,2.8369 C7.7958,3.2299 6.5888,3.9419 5.5208,4.8849 C4.2128,6.0419 3.3668,7.4619 3.0368,9.1669 C2.7298,10.7639 2.8878,12.3269 3.5638,13.8249 C3.9618,14.7089 4.4998,15.4869 5.2048,16.1519 C5.2878,16.2299 5.3518,16.3299 5.4238,16.4189 C5.3978,16.4589 5.3718,16.4979 5.3458,16.5379 C5.0808,16.3909 4.7788,16.2869 4.5578,16.0889 C3.8378,15.4469 3.0438,14.8489 2.4668,14.0909 C0.7628,11.8539 0.3338,9.3439 1.2188,6.6559 C1.9308,4.4979 3.3888,2.9479 5.3148,1.8029 C7.0368,0.7799 8.9028,0.2979 10.9028,0.3689 C12.9008,0.4399 14.7278,1.0539 16.3848,2.1709 C17.6318,3.0129 18.6258,4.0969 19.4158,5.3739 C19.5018,5.5129 19.5618,5.6679 19.6338,5.8149 C19.5948,5.8429 19.5558,5.8719 19.5158,5.8999" id="Fill-7" fill="#14002D"></path>
        <path d="M9.3635,12.1177 C9.3635,11.1077 9.3635,10.0967 9.3625,9.0867 C9.3625,8.4717 9.3545,8.4647 8.7215,8.4647 C7.9545,8.4637 7.1865,8.4677 6.4185,8.4627 C5.9575,8.4597 5.8895,8.3277 6.1265,7.9307 C6.7475,6.8827 7.7265,6.3997 8.8845,6.3677 C10.8365,6.3117 12.7905,6.3477 14.7435,6.3507 C15.1375,6.3517 15.2135,6.4667 15.0275,6.8157 C14.5035,7.8067 13.6765,8.3587 12.5555,8.4597 C12.4755,8.4667 12.3945,8.4627 12.3135,8.4637 C11.7355,8.4697 11.7225,8.4797 11.7215,9.0517 C11.7205,10.4257 11.7075,11.7997 11.7255,13.1737 C11.7395,14.1267 11.2595,14.7737 10.5145,15.2727 C10.2835,15.4287 10.0225,15.5407 9.7755,15.6727 C9.4625,15.8387 9.3625,15.6947 9.3635,15.3907 C9.3655,14.6777 9.3635,13.9637 9.3635,13.2497 L9.3635,12.1177 Z" id="Fill-9" fill="#14002D"></path>
    </g>
</svg>