<?xml version="1.0" encoding="UTF-8"?>
<svg width="21px" height="21px" viewBox="0 0 21 21" version="1.1" xmlns="http://www.w3.org/2000/svg" xmlns:xlink="http://www.w3.org/1999/xlink">
    <!-- Generator: Sketch 53.1 (72631) - https://sketchapp.com -->
    <title>ICON/USDCoin Dark</title>
    <desc>Created with Sketch.</desc>
    <g id="ICON/USDCoin-Dark" stroke="none" stroke-width="1" fill="none" fill-rule="evenodd">
        <path d="M10.5,20 C5.25329488,20 1,15.7467051 1,10.5 C1,5.25329488 5.25329488,1 10.5,1 C15.7467051,1 20,5.25329488 20,10.5 C20,15.7467051 15.7467051,20 10.5,20 Z M8.6037,3.7271 C7.6727,3.5031 5.5537,4.9401 4.5117,6.5001 C2.8487,8.9921 2.9007,12.2821 4.6427,14.7011 C5.7197,16.1981 7.7557,17.5191 8.6147,17.2791 C8.8407,16.4801 8.7537,16.3031 8.0897,15.9791 C5.8317,14.8771 4.5667,13.0801 4.5467,10.5531 C4.5267,7.9991 5.7857,6.1801 8.0507,5.0491 C8.7597,4.6951 8.8567,4.5021 8.6037,3.7271 Z M12.4357,17.3081 C13.4857,17.4651 15.6657,15.9581 16.6307,14.3071 C18.1927,11.6371 18.1307,8.9621 16.4167,6.3831 C15.4707,4.9601 14.1357,4.0371 12.4747,3.5791 C12.1587,4.4771 12.2637,4.6981 12.9607,5.0441 C15.2297,6.1721 16.4917,7.9901 16.4747,10.5431 C16.4587,13.0731 15.1977,14.8701 12.9407,15.9751 C12.2647,16.3061 12.1477,16.5751 12.4357,17.3081 Z M9.8697,6.8781 C9.5977,6.9791 9.3597,7.0501 9.1357,7.1521 C8.4977,7.4441 8.0747,7.9181 7.9667,8.6271 C7.8137,9.6341 8.2397,10.3731 9.2207,10.6881 C9.8417,10.8871 10.4987,10.9741 11.1327,11.1371 C11.5607,11.2471 11.8667,11.5031 11.8727,11.9901 C11.8777,12.4691 11.6347,12.7951 11.2037,12.9821 C10.3287,13.3591 9.4347,13.0001 9.0627,12.1341 C9.0227,12.0391 8.9537,11.9571 8.9087,11.8851 L7.7957,11.8851 C7.8507,13.2951 8.7447,13.8231 9.8657,14.1091 C9.8987,14.5011 9.9267,14.8481 9.9587,15.2411 L11.0767,15.2411 C11.1057,14.8131 11.1287,14.4651 11.1507,14.1331 C11.4927,13.9851 11.8177,13.8811 12.1037,13.7111 C12.9007,13.2381 13.2357,12.5191 13.1347,11.6001 C13.0397,10.7181 12.4767,10.2601 11.6787,10.0391 C11.3217,9.9401 10.9497,9.8951 10.5867,9.8121 C10.2767,9.7411 9.9537,9.6901 9.6677,9.5601 C9.1277,9.3151 9.0447,8.5771 9.4837,8.1801 C10.0397,7.6771 11.2147,7.8511 11.5927,8.4941 C11.9027,9.0191 12.2967,9.1041 12.8957,8.7381 C12.7987,7.6771 12.0687,7.1901 11.1607,6.9171 C11.1237,6.4981 11.0907,6.1381 11.0507,5.6971 C10.6437,5.7171 10.3097,5.7351 9.9507,5.7531 C9.9197,6.1771 9.8957,6.5081 9.8697,6.8781 Z" id="Combined-Shape" fill="#14002D" fill-rule="nonzero"></path>
    </g>
</svg>