<?xml version="1.0" encoding="UTF-8"?>
<svg width="40px" height="40px" viewBox="0 0 40 40" version="1.1" xmlns="http://www.w3.org/2000/svg" xmlns:xlink="http://www.w3.org/1999/xlink">
    <!-- Generator: Sketch 53.1 (72631) - https://sketchapp.com -->
    <title>2</title>
    <desc>Created with Sketch.</desc>
    <g id="Page-1" stroke="none" stroke-width="1" fill="none" fill-rule="evenodd">
        <g id="Transaction-Popup" transform="translate(-744.000000, -520.000000)">
            <g id="Pop-up" transform="translate(176.000000, 236.000000)">
                <g id="Steps" transform="translate(568.000000, 219.000000)">
                    <g id="POPUP/2" transform="translate(0.000000, 65.000000)">
                        <g id="2">
                            <path d="M7,6.5 C6.72385763,6.5 6.5,6.72385763 6.5,7 L6.5,33 C6.5,33.2761424 6.72385763,33.5 7,33.5 L33,33.5 C33.2761424,33.5 33.5,33.2761424 33.5,33 L33.5,7 C33.5,6.72385763 33.2761424,6.5 33,6.5 L7,6.5 Z" id="Rectangle" stroke="#FFFFFF" fill-rule="nonzero" transform="translate(20.000000, 20.000000) rotate(-45.000000) translate(-20.000000, -20.000000) "></path>
                            <path d="M17.708,18.544 L17,18.364 C17.108,16.78 18.368,16 19.844,16 C21.32,16 22.544,16.984 22.544,18.64 C22.544,20.788 20.744,22.132 18.512,23.584 L22.796,23.584 L22.796,24.424 L17.252,24.424 L17.252,23.572 C19.412,22.132 21.608,20.752 21.608,18.7 C21.608,17.32 20.648,16.804 19.808,16.804 C18.752,16.804 17.936,17.332 17.78,18.544 L17.708,18.544 Z" fill="#FFFFFF"></path>
                        </g>
                    </g>
                </g>
            </g>
        </g>
    </g>
</svg>