<?xml version="1.0" encoding="UTF-8"?>
<svg width="40px" height="40px" viewBox="0 0 40 40" version="1.1" xmlns="http://www.w3.org/2000/svg" xmlns:xlink="http://www.w3.org/1999/xlink">
    <!-- Generator: Sketch 53.1 (72631) - https://sketchapp.com -->
    <title>1</title>
    <desc>Created with Sketch.</desc>
    <g id="Page-1" stroke="none" stroke-width="1" fill="none" fill-rule="evenodd">
        <g id="Transaction-Popup" transform="translate(-744.000000, -455.000000)">
            <g id="Pop-up" transform="translate(176.000000, 236.000000)">
                <g id="Steps" transform="translate(568.000000, 219.000000)">
                    <g id="POPUP/1">
                        <g id="1">
                            <path d="M7,6.5 C6.72385763,6.5 6.5,6.72385763 6.5,7 L6.5,33 C6.5,33.2761424 6.72385763,33.5 7,33.5 L33,33.5 C33.2761424,33.5 33.5,33.2761424 33.5,33 L33.5,7 C33.5,6.72385763 33.2761424,6.5 33,6.5 L7,6.5 Z" id="Rectangle" stroke="#FFFFFF" fill-rule="nonzero" transform="translate(20.000000, 20.000000) rotate(-45.000000) translate(-20.000000, -20.000000) "></path>
                            <polygon fill="#FFFFFF" points="21.012 23.304 20.4108048 23.304 20.4108048 17.7561156 19.0641275 18.4575723 19 18.4575723 19 17.8107746 20.5631076 17 21.012 17"></polygon>
                        </g>
                    </g>
                </g>
            </g>
        </g>
    </g>
</svg>