<?xml version="1.0" encoding="UTF-8"?>
<svg width="231px" height="35px" viewBox="0 0 231 35" version="1.1" xmlns="http://www.w3.org/2000/svg" xmlns:xlink="http://www.w3.org/1999/xlink">
    <!-- Generator: Sketch 53.1 (72631) - https://sketchapp.com -->
    <title>POP UP Title</title>
    <desc>Created with Sketch.</desc>
    <g id="Page-1" stroke="none" stroke-width="1" fill="none" fill-rule="evenodd">
        <g id="Transaction-Popup" transform="translate(-745.000000, -341.000000)" fill="#FFFFFF">
            <g id="Pop-up" transform="translate(176.000000, 236.000000)">
                <g id="POPUP/Title" transform="translate(569.000000, 105.000000)">
                    <g id="..." transform="translate(199.000000, 32.000000)" fill-rule="nonzero">
                        <rect id="Rectangle" x="0" y="0" width="3" height="3"></rect>
                        <rect id="Rectangle-Copy-2" x="7" y="0" width="3" height="3"></rect>
                        <rect id="Rectangle-Copy-3" x="14" y="0" width="3" height="3"></rect>
                    </g>
                    <path d="M8.00390625,3.99609375 L8.00390625,0 L12,0 L12,4.0078125 L7.96875,3.99609375 L8.00390625,12 L3.984375,12 L4.0078125,3.99609375 L0.01171875,3.99609375 L0.01171875,0 L4.0078125,0 L4.0078125,3.99609375 L8.00390625,3.99609375 Z M14.88,0 L26.88,0 L26.88,12 L14.88,12 L14.88,0 Z M18.8760937,3.99609375 L18.8760937,8.00390625 L22.8839062,8.00390625 L22.8839062,3.99609375 L18.8760937,3.99609375 Z M37.7639062,8.00390625 L37.7639062,0 L41.76,0 L41.76,12 L29.76,12 L29.76,0 L33.7560937,0 L33.7560937,8.00390625 L37.7639062,8.00390625 Z M44.7689062,0 L56.499375,0 L56.499375,6 L52.5853125,6 L52.5853125,3.9140625 L48.4134375,3.9140625 L48.4134375,6 L52.5853125,6 L52.5853125,7.828125 L56.5228125,7.828125 L56.499375,11.7421875 L52.5735937,11.7421875 L52.5853125,8.0859375 L48.4134375,8.0859375 L48.4134375,12 L44.7689062,12 L44.7689062,0 Z M69.6011719,3.99609375 L69.6011719,0 L81.6011719,0 L81.6011719,3.99609375 L77.6285156,3.99609375 L77.6050781,12 L73.5855469,12 L73.5972656,3.99609375 L69.6011719,3.99609375 Z M84.6100781,0 L96.3405469,0 L96.3405469,6 L92.4264844,6 L92.4264844,3.9140625 L88.2546094,3.9140625 L88.2546094,6 L92.4264844,6 L92.4264844,7.828125 L96.3639844,7.828125 L96.3405469,11.7421875 L92.4147656,11.7421875 L92.4264844,8.0859375 L88.2546094,8.0859375 L88.2546094,12 L84.6100781,12 L84.6100781,0 Z M99.3611719,12 L99.3611719,0 L111.361172,0 L111.361172,12 L107.365078,12 L107.365078,7.734375 L103.357266,7.734375 L103.357266,12 L99.3611719,12 Z M103.357266,3.73828125 L103.357266,5.6015625 L107.365078,5.6015625 L107.365078,3.73828125 L103.357266,3.73828125 Z M114.241172,12 L114.241172,0 L126.241172,0 L126.241172,12 L122.245078,12 L122.245078,3.99609375 L118.237266,3.99609375 L118.237266,12 L114.241172,12 Z M133.117266,0 L141.121172,0 L141.121172,3.99609375 L137.125078,3.99609375 L137.125078,12 L129.121172,12 L129.121172,8.00390625 L133.117266,8.00390625 L133.117266,0 Z M144.001172,12 L144.001172,0 L156.001172,0 L156.001172,12 L152.005078,12 L152.005078,7.734375 L147.997266,7.734375 L147.997266,12 L144.001172,12 Z M147.997266,3.73828125 L147.997266,5.6015625 L152.005078,5.6015625 L152.005078,3.73828125 L147.997266,3.73828125 Z M170.881172,8.00390625 L170.881172,12 L158.881172,12 L158.881172,0 L170.881172,0 L170.881172,3.99609375 L162.877266,3.99609375 L162.877266,8.00390625 L170.881172,8.00390625 Z M173.761172,3.99609375 L173.761172,0 L185.761172,0 L185.761172,3.99609375 L181.788516,3.99609375 L181.765078,12 L177.745547,12 L177.757266,3.99609375 L173.761172,3.99609375 Z M200.641172,3.99609375 L196.645078,3.99609375 L196.645078,8.00390625 L200.641172,8.00390625 L200.641172,12 L188.641172,12 L188.641172,8.00390625 L192.637266,8.00390625 L192.637266,3.99609375 L188.641172,3.99609375 L188.641172,0 L200.641172,0 L200.641172,3.99609375 Z M203.521172,0 L215.521172,0 L215.521172,12 L203.521172,12 L203.521172,0 Z M207.517266,3.99609375 L207.517266,8.00390625 L211.525078,8.00390625 L211.525078,3.99609375 L207.517266,3.99609375 Z M218.401172,12 L218.401172,0 L230.401172,0 L230.401172,12 L226.405078,12 L226.405078,3.99609375 L222.397266,3.99609375 L222.397266,12 L218.401172,12 Z M12,26.9960938 L8.00390625,26.9960938 L8.00390625,31.0039062 L12,31.0039062 L12,35 L-5.68434189e-14,35 L-5.68434189e-14,31.0039062 L3.99609375,31.0039062 L3.99609375,26.9960938 L-5.68434189e-14,26.9960938 L-5.68434189e-14,23 L12,23 L12,26.9960938 Z M18.8760937,23 L26.88,23 L26.88,26.9960938 L22.8839062,26.9960938 L22.8839062,35 L14.88,35 L14.88,31.0039062 L18.8760937,31.0039062 L18.8760937,23 Z M51.8411719,26.9960938 L47.8450781,26.9960938 L47.8450781,31.0039062 L51.8411719,31.0039062 L51.8411719,35 L39.8411719,35 L39.8411719,31.0039062 L43.8372656,31.0039062 L43.8372656,26.9960938 L39.8411719,26.9960938 L39.8411719,23 L51.8411719,23 L51.8411719,26.9960938 Z M54.7211719,35 L54.7211719,23 L66.7211719,23 L66.7211719,35 L62.7250781,35 L62.7250781,26.9960938 L58.7172656,26.9960938 L58.7172656,35 L54.7211719,35 Z M79.6823437,23 L91.6823437,23 L91.6823437,29.9375 L83.420625,29.9375 L83.420625,35 L79.6823437,35 L79.6823437,23 Z M87.68625,27.8046875 L87.68625,26.7382812 L83.6784375,26.7382812 L83.6784375,27.8046875 L87.68625,27.8046875 Z M94.69125,23 L106.421719,23 L106.421719,29 L102.507656,29 L102.507656,26.9140625 L98.3357812,26.9140625 L98.3357812,29 L102.507656,29 L102.507656,30.828125 L106.445156,30.828125 L106.421719,34.7421875 L102.495937,34.7421875 L102.507656,31.0859375 L98.3357812,31.0859375 L98.3357812,35 L94.69125,35 L94.69125,23 Z M109.442344,23 L121.442344,23 L121.442344,35 L109.442344,35 L109.442344,23 Z M113.438437,26.9960938 L113.438437,31.0039062 L117.44625,31.0039062 L117.44625,26.9960938 L113.438437,26.9960938 Z M136.322344,35 L124.322344,35 L124.322344,23 L136.322344,23 L136.322344,26.9960938 L128.318437,26.9960938 L128.318437,31.0039062 L132.056719,31.0039062 L132.056719,29.1289062 L136.322344,29.1289062 L136.322344,35 Z M139.33125,23 L151.061719,23 L151.061719,29 L147.147656,29 L147.147656,26.9140625 L142.975781,26.9140625 L142.975781,29 L147.147656,29 L147.147656,30.828125 L151.085156,30.828125 L151.061719,34.7421875 L147.135937,34.7421875 L147.147656,31.0859375 L142.975781,31.0859375 L142.975781,35 L139.33125,35 L139.33125,23 Z M166.082344,23 L166.082344,26.9960938 L158.078437,26.9960938 L158.078437,31.0039062 L166.082344,31.0039062 L166.082344,35 L154.082344,35 L154.082344,23 L166.082344,23 Z M158.887031,28.0625 L162.883125,28.0625 L162.883125,29.9375 L158.887031,29.9375 L158.887031,28.0625 Z M172.958437,23 L180.962344,23 L180.962344,26.9960938 L176.96625,26.9960938 L176.96625,35 L168.962344,35 L168.962344,31.0039062 L172.958437,31.0039062 L172.958437,23 Z M187.838437,23 L195.842344,23 L195.842344,26.9960938 L191.84625,26.9960938 L191.84625,35 L183.842344,35 L183.842344,31.0039062 L187.838437,31.0039062 L187.838437,23 Z" id="Your-transaction-is" fill-rule="evenodd"></path>
                </g>
            </g>
        </g>
    </g>
</svg>