<?xml version="1.0" encoding="UTF-8"?>
<svg width="49px" height="49px" viewBox="0 0 49 49" version="1.1" xmlns="http://www.w3.org/2000/svg" xmlns:xlink="http://www.w3.org/1999/xlink">
    <!-- Generator: Sketch 53.1 (72631) - https://sketchapp.com -->
    <title>Copy Eth address button</title>
    <desc>Created with Sketch.</desc>
    <g id="Page-1" stroke="none" stroke-width="1" fill="none" fill-rule="evenodd">
        <g id="Action-Button-Open" transform="translate(-65.000000, -674.000000)">
            <g id="ACTION-BUTTON-OPEN" transform="translate(65.000000, 674.000000)">
                <g id="ActionButton/Copy-Eth-address">
                    <path d="M21.7689986,1.131341 C23.2774533,-0.377113667 25.723132,-0.377113667 27.2308063,1.131341 L47.8692443,21.7689986 C49.3769186,23.2774533 49.3769186,25.7223516 47.8692443,27.2308063 L27.2308063,47.8684639 C25.723132,49.3769186 23.2774533,49.3769186 21.7689986,47.8684639 L1.131341,27.2308063 C-0.377113667,25.7223516 -0.377113667,23.2774533 1.131341,21.7689986 L21.7689986,1.131341 Z" id="Fill-1" fill="#FF6272"></path>
                    <g id="ICON/Copy" transform="translate(14.000000, 12.000000)" stroke="#FFFFFF" stroke-linecap="round" stroke-width="1">
                        <g id="copy" transform="translate(1.000000, 1.000000)">
                            <path d="M3.89607387,19.4615385 L2.39175858,19.4615385 C1.07629136,19.4615385 0,18.389659 0,17.0795842 L0,2.38276444 C0,1.0726896 1.07629136,0 2.39175858,0 L10.566041,0 C11.8400185,0 12.8902771,1.00706433 12.9545455,2.26123616" id="Stroke-4"></path>
                            <path d="M8.63636364,7.51923077 L16.4090909,7.51923077" id="Stroke-6"></path>
                            <path d="M8.63636364,10.1730769 L16.4090909,10.1730769" id="Stroke-8"></path>
                            <path d="M3.45454545,9.73076923 L3.45454545,11.9514848 C3.45454545,13.656259 4.73009455,15.0384615 6.30412534,15.0384615 L10.3636364,15.0384615" id="Stroke-10"></path>
                            <polyline id="Stroke-12" stroke-linejoin="round" points="8.63636364 12.3846154 11.2272727 15.0375647 8.63636364 17.6923077"></polyline>
                            <path d="M6.04545455,17.7116749 L6.04545455,20.6180457 C6.04545455,21.9281206 7.12134052,23 8.43631228,23 L16.6075158,23 C17.9224876,23 19,21.9281206 19,20.6180457 L19,5.92203617 C19,4.61115114 17.9233008,3.53846154 16.6075158,3.53846154 L8.43631228,3.53846154 C7.12134052,3.53846154 6.04545455,4.61115114 6.04545455,5.92203617 L6.04545455,12.382126" id="Stroke-14"></path>
                        </g>
                    </g>
                </g>
            </g>
        </g>
    </g>
</svg>