<?xml version="1.0" encoding="UTF-8"?>
<svg width="49px" height="49px" viewBox="0 0 49 49" version="1.1" xmlns="http://www.w3.org/2000/svg" xmlns:xlink="http://www.w3.org/1999/xlink">
    <!-- Generator: Sketch 53.1 (72631) - https://sketchapp.com -->
    <title>Help Button</title>
    <desc>Created with Sketch.</desc>
    <g id="Page-1" stroke="none" stroke-width="1" fill="none" fill-rule="evenodd">
        <g id="Action-Button-Open" transform="translate(-100.000000, -707.000000)">
            <g id="ACTION-BUTTON-OPEN" transform="translate(65.000000, 674.000000)">
                <g id="ActionButton/Help" transform="translate(35.000000, 33.000000)">
                    <path d="M1.131341,21.7690853 L21.7689986,1.13134551 C23.2774533,-0.377115169 25.723132,-0.377115169 27.2308063,1.13134551 L47.8692443,21.7690853 C49.3769186,23.277546 49.3769186,25.722454 47.8692443,27.2309147 L27.2308063,47.8686545 C25.723132,49.3771152 23.2774533,49.3771152 21.7689986,47.8686545 L1.131341,27.2309147 C-0.377113667,25.722454 -0.377113667,23.277546 1.131341,21.7690853" id="Fill-1" fill="#00D0DE" fill-rule="nonzero"></path>
                    <g id="ICON/Help" transform="translate(12.000000, 12.000000)" fill-rule="evenodd" stroke-width="1">
                        <g id="help" transform="translate(1.000000, 1.000000)">
                            <circle id="Oval" stroke="#FFFFFF" fill-rule="nonzero" cx="11.5" cy="11.5" r="11.5"></circle>
                            <path d="M12,17.5 C12,17.776 11.776,18 11.5,18 C11.224,18 11,17.776 11,17.5 C11,17.224 11.224,17 11.5,17 C11.776,17 12,17.224 12,17.5" id="Fill-6" stroke="#FFFFFF" fill="#FFFFFF"></path>
                            <path d="M9.16674306,9.22590372 C9.16674306,9.53658248 8.90555873,9.78843737 8.58337153,9.78843737 C8.26118433,9.78843737 8,9.53658248 8,9.22590372 C8,7.17676931 10.0331575,5.64975339 12.2408794,6.06989596 C13.5668813,6.32225771 14.6404967,7.30275529 14.9214665,8.53188958 C15.290683,10.1510847 14.3251852,11.7021729 12.7153394,12.2523188 C12.3277035,12.3842009 12.0836434,12.6928641 12.0836434,13.0281664 L12.0836434,14.4374663 C12.0836434,14.7481451 11.822459,15 11.5002718,15 C11.1780846,15 10.9169003,14.7481451 10.9169003,14.4374663 L10.9169003,13.0281664 C10.9169003,12.1989449 11.4878152,11.476908 12.3263692,11.1916146 C13.395963,10.826093 14.0210147,9.82193703 13.78201,8.77378397 C13.60257,7.98880384 12.8930002,7.34077707 12.014967,7.17367172 C10.514288,6.88808361 9.16674306,7.90016582 9.16674306,9.22590372 Z" id="Path" fill="#FFFFFF" fill-rule="nonzero"></path>
                        </g>
                    </g>
                </g>
            </g>
        </g>
    </g>
</svg>