<?xml version="1.0" encoding="UTF-8"?>
<svg width="49px" height="49px" viewBox="0 0 49 49" version="1.1" xmlns="http://www.w3.org/2000/svg" xmlns:xlink="http://www.w3.org/1999/xlink">
    <!-- Generator: Sketch 53.1 (72631) - https://sketchapp.com -->
    <title>Logout Button</title>
    <desc>Created with Sketch.</desc>
    <g id="Page-1" stroke="none" stroke-width="1" fill="none" fill-rule="evenodd">
        <g id="Action-Button-Open" transform="translate(-65.000000, -741.000000)">
            <g id="ACTION-BUTTON-OPEN" transform="translate(65.000000, 674.000000)">
                <g id="ActionButton/Logout" transform="translate(0.000000, 67.000000)">
                    <path d="M21.7688486,1.13149551 C23.2773033,-0.376965169 25.722982,-0.376965169 27.2306563,1.13149551 L47.8690943,21.7692353 C49.3767686,23.277696 49.3767686,25.722604 47.8690943,27.2310647 L27.2306563,47.8688045 C25.722982,49.3772652 23.2773033,49.3772652 21.7688486,47.8688045 L1.131191,27.2310647 C-0.377263667,25.722604 -0.377263667,23.277696 1.131191,21.7692353 L21.7688486,1.13149551 Z" id="Fill-1" fill="#4D4D4D"></path>
                    <g id="ICON/Logout" transform="translate(17.000000, 14.000000)" stroke="#FFFFFF" stroke-linecap="round" stroke-width="1">
                        <g id="logout" transform="translate(1.000000, 1.000000)">
                            <path d="M6,9.5 L16.5,9.5" id="Stroke-4"></path>
                            <polyline id="Stroke-6" stroke-linejoin="round" points="15 7 17 9.5 15 12"></polyline>
                            <path d="M13,5.78780183 L13,2.32556203 C13,1.04650291 11.9202712,0 10.6006027,0 L2.40021345,0 C1.08054492,0 0,1.04650291 0,2.32556203 L0,16.674438 C0,17.9534971 1.08054492,19 2.40021345,19 L10.6006027,19 C11.9202712,19 13,17.9534971 13,16.674438 L13,13.2121982" id="Stroke-8"></path>
                        </g>
                    </g>
                </g>
            </g>
        </g>
    </g>
</svg>